<mxfile host="Electron" modified="2024-07-04T19:41:52.646Z" agent="Mozilla/5.0 (Windows NT 10.0; Win64; x64) AppleWebKit/537.36 (KHTML, like Gecko) draw.io/24.6.1 Chrome/124.0.6367.207 Electron/30.0.6 Safari/537.36" etag="YLYLZLRHEJlZixHttU6p" version="24.6.1" type="device">
  <diagram name="Page-1" id="V7q6lybsUQNb5LDysvQI">
    <mxGraphModel dx="2412" dy="909" grid="1" gridSize="10" guides="1" tooltips="1" connect="1" arrows="1" fold="1" page="1" pageScale="1" pageWidth="850" pageHeight="1100" math="0" shadow="0">
      <root>
        <mxCell id="0" />
        <mxCell id="1" parent="0" />
        <mxCell id="P18yoihbpBg77b_jh4cL-16" value="&lt;b&gt;Milling 1&lt;/b&gt;" style="swimlane;fontStyle=0;childLayout=stackLayout;horizontal=1;startSize=30;horizontalStack=0;resizeParent=1;resizeParentMax=0;resizeLast=0;collapsible=1;marginBottom=0;whiteSpace=wrap;html=1;" parent="1" vertex="1">
          <mxGeometry y="750" width="140" height="90" as="geometry" />
        </mxCell>
        <mxCell id="P18yoihbpBg77b_jh4cL-17" value="Product type (A, B, C)" style="text;strokeColor=none;fillColor=none;align=left;verticalAlign=middle;spacingLeft=4;spacingRight=4;overflow=hidden;points=[[0,0.5],[1,0.5]];portConstraint=eastwest;rotatable=0;whiteSpace=wrap;html=1;" parent="P18yoihbpBg77b_jh4cL-16" vertex="1">
          <mxGeometry y="30" width="140" height="30" as="geometry" />
        </mxCell>
        <mxCell id="b0_iLcOauBu5iKae1qTI-168" style="edgeStyle=orthogonalEdgeStyle;rounded=0;orthogonalLoop=1;jettySize=auto;html=1;exitX=0;exitY=0.5;exitDx=0;exitDy=0;startArrow=classic;startFill=1;endArrow=none;endFill=0;" parent="P18yoihbpBg77b_jh4cL-16" source="P18yoihbpBg77b_jh4cL-18" edge="1">
          <mxGeometry relative="1" as="geometry">
            <mxPoint x="-40" y="75.25" as="targetPoint" />
          </mxGeometry>
        </mxCell>
        <mxCell id="P18yoihbpBg77b_jh4cL-18" value="Quantity" style="text;strokeColor=none;fillColor=none;align=left;verticalAlign=middle;spacingLeft=4;spacingRight=4;overflow=hidden;points=[[0,0.5],[1,0.5]];portConstraint=eastwest;rotatable=0;whiteSpace=wrap;html=1;" parent="P18yoihbpBg77b_jh4cL-16" vertex="1">
          <mxGeometry y="60" width="140" height="30" as="geometry" />
        </mxCell>
        <mxCell id="b0_iLcOauBu5iKae1qTI-170" style="edgeStyle=orthogonalEdgeStyle;rounded=0;orthogonalLoop=1;jettySize=auto;html=1;exitX=1;exitY=0.25;exitDx=0;exitDy=0;" parent="1" source="P18yoihbpBg77b_jh4cL-20" target="P18yoihbpBg77b_jh4cL-28" edge="1">
          <mxGeometry relative="1" as="geometry" />
        </mxCell>
        <mxCell id="P18yoihbpBg77b_jh4cL-20" value="&lt;b&gt;Milling 2&lt;/b&gt;" style="swimlane;fontStyle=0;childLayout=stackLayout;horizontal=1;startSize=30;horizontalStack=0;resizeParent=1;resizeParentMax=0;resizeLast=0;collapsible=1;marginBottom=0;whiteSpace=wrap;html=1;" parent="1" vertex="1">
          <mxGeometry y="1010" width="140" height="90" as="geometry" />
        </mxCell>
        <mxCell id="P18yoihbpBg77b_jh4cL-21" value="Product type (D, E, F)" style="text;strokeColor=none;fillColor=none;align=left;verticalAlign=middle;spacingLeft=4;spacingRight=4;overflow=hidden;points=[[0,0.5],[1,0.5]];portConstraint=eastwest;rotatable=0;whiteSpace=wrap;html=1;" parent="P18yoihbpBg77b_jh4cL-20" vertex="1">
          <mxGeometry y="30" width="140" height="30" as="geometry" />
        </mxCell>
        <mxCell id="b0_iLcOauBu5iKae1qTI-166" style="edgeStyle=orthogonalEdgeStyle;rounded=0;orthogonalLoop=1;jettySize=auto;html=1;exitX=1;exitY=0.5;exitDx=0;exitDy=0;endArrow=none;endFill=0;startArrow=classic;startFill=1;" parent="P18yoihbpBg77b_jh4cL-20" source="P18yoihbpBg77b_jh4cL-22" edge="1">
          <mxGeometry relative="1" as="geometry">
            <mxPoint x="200" y="60.00000000000023" as="targetPoint" />
            <Array as="points">
              <mxPoint x="200" y="75" />
            </Array>
          </mxGeometry>
        </mxCell>
        <mxCell id="P18yoihbpBg77b_jh4cL-22" value="Quantity" style="text;strokeColor=none;fillColor=none;align=left;verticalAlign=middle;spacingLeft=4;spacingRight=4;overflow=hidden;points=[[0,0.5],[1,0.5]];portConstraint=eastwest;rotatable=0;whiteSpace=wrap;html=1;" parent="P18yoihbpBg77b_jh4cL-20" vertex="1">
          <mxGeometry y="60" width="140" height="30" as="geometry" />
        </mxCell>
        <mxCell id="b0_iLcOauBu5iKae1qTI-173" style="edgeStyle=orthogonalEdgeStyle;rounded=0;orthogonalLoop=1;jettySize=auto;html=1;exitX=1;exitY=0.25;exitDx=0;exitDy=0;" parent="1" source="P18yoihbpBg77b_jh4cL-24" target="P18yoihbpBg77b_jh4cL-30" edge="1">
          <mxGeometry relative="1" as="geometry" />
        </mxCell>
        <mxCell id="P18yoihbpBg77b_jh4cL-24" value="&lt;b&gt;Sawing&lt;/b&gt;" style="swimlane;fontStyle=0;childLayout=stackLayout;horizontal=1;startSize=30;horizontalStack=0;resizeParent=1;resizeParentMax=0;resizeLast=0;collapsible=1;marginBottom=0;whiteSpace=wrap;html=1;" parent="1" vertex="1">
          <mxGeometry x="350" y="870" width="140" height="90" as="geometry" />
        </mxCell>
        <mxCell id="P18yoihbpBg77b_jh4cL-25" value="Product" style="text;strokeColor=none;fillColor=none;align=left;verticalAlign=middle;spacingLeft=4;spacingRight=4;overflow=hidden;points=[[0,0.5],[1,0.5]];portConstraint=eastwest;rotatable=0;whiteSpace=wrap;html=1;" parent="P18yoihbpBg77b_jh4cL-24" vertex="1">
          <mxGeometry y="30" width="140" height="30" as="geometry" />
        </mxCell>
        <mxCell id="b0_iLcOauBu5iKae1qTI-172" style="edgeStyle=orthogonalEdgeStyle;rounded=0;orthogonalLoop=1;jettySize=auto;html=1;exitX=0;exitY=0.5;exitDx=0;exitDy=0;startArrow=classic;startFill=1;endArrow=none;endFill=0;" parent="P18yoihbpBg77b_jh4cL-24" source="P18yoihbpBg77b_jh4cL-26" edge="1">
          <mxGeometry relative="1" as="geometry">
            <mxPoint x="-40" y="60" as="targetPoint" />
            <Array as="points">
              <mxPoint x="-40" y="75" />
            </Array>
          </mxGeometry>
        </mxCell>
        <mxCell id="P18yoihbpBg77b_jh4cL-26" value="Sawing cutting tool" style="text;strokeColor=none;fillColor=none;align=left;verticalAlign=middle;spacingLeft=4;spacingRight=4;overflow=hidden;points=[[0,0.5],[1,0.5]];portConstraint=eastwest;rotatable=0;whiteSpace=wrap;html=1;" parent="P18yoihbpBg77b_jh4cL-24" vertex="1">
          <mxGeometry y="60" width="140" height="30" as="geometry" />
        </mxCell>
        <mxCell id="b0_iLcOauBu5iKae1qTI-171" style="edgeStyle=orthogonalEdgeStyle;rounded=0;orthogonalLoop=1;jettySize=auto;html=1;exitX=1;exitY=0.5;exitDx=0;exitDy=0;exitPerimeter=0;entryX=0;entryY=0.5;entryDx=0;entryDy=0;" parent="1" source="P18yoihbpBg77b_jh4cL-28" target="P18yoihbpBg77b_jh4cL-25" edge="1">
          <mxGeometry relative="1" as="geometry">
            <Array as="points">
              <mxPoint x="310" y="930" />
              <mxPoint x="310" y="915" />
            </Array>
          </mxGeometry>
        </mxCell>
        <mxCell id="P18yoihbpBg77b_jh4cL-28" value="" style="shape=cylinder3;whiteSpace=wrap;html=1;boundedLbl=1;backgroundOutline=1;size=15;" parent="1" vertex="1">
          <mxGeometry x="190" y="875" width="85" height="95" as="geometry" />
        </mxCell>
        <mxCell id="P18yoihbpBg77b_jh4cL-29" value="&lt;b&gt;Cleaning &amp;amp; Drying&lt;/b&gt;" style="swimlane;fontStyle=0;childLayout=stackLayout;horizontal=1;startSize=30;horizontalStack=0;resizeParent=1;resizeParentMax=0;resizeLast=0;collapsible=1;marginBottom=0;whiteSpace=wrap;html=1;" parent="1" vertex="1">
          <mxGeometry x="550" y="870" width="140" height="60" as="geometry" />
        </mxCell>
        <mxCell id="P18yoihbpBg77b_jh4cL-30" value="Product" style="text;strokeColor=none;fillColor=none;align=left;verticalAlign=middle;spacingLeft=4;spacingRight=4;overflow=hidden;points=[[0,0.5],[1,0.5]];portConstraint=eastwest;rotatable=0;whiteSpace=wrap;html=1;" parent="P18yoihbpBg77b_jh4cL-29" vertex="1">
          <mxGeometry y="30" width="140" height="30" as="geometry" />
        </mxCell>
        <mxCell id="P18yoihbpBg77b_jh4cL-33" value="&lt;b&gt;Verification&lt;/b&gt;" style="swimlane;fontStyle=0;childLayout=stackLayout;horizontal=1;startSize=30;horizontalStack=0;resizeParent=1;resizeParentMax=0;resizeLast=0;collapsible=1;marginBottom=0;whiteSpace=wrap;html=1;" parent="1" vertex="1">
          <mxGeometry x="750" y="870" width="140" height="60" as="geometry" />
        </mxCell>
        <mxCell id="P18yoihbpBg77b_jh4cL-34" value="Product" style="text;strokeColor=none;fillColor=none;align=left;verticalAlign=middle;spacingLeft=4;spacingRight=4;overflow=hidden;points=[[0,0.5],[1,0.5]];portConstraint=eastwest;rotatable=0;whiteSpace=wrap;html=1;" parent="P18yoihbpBg77b_jh4cL-33" vertex="1">
          <mxGeometry y="30" width="140" height="30" as="geometry" />
        </mxCell>
        <mxCell id="b0_iLcOauBu5iKae1qTI-181" style="edgeStyle=orthogonalEdgeStyle;rounded=0;orthogonalLoop=1;jettySize=auto;html=1;exitX=0;exitY=0.25;exitDx=0;exitDy=0;entryX=1;entryY=0.5;entryDx=0;entryDy=0;" parent="1" source="P18yoihbpBg77b_jh4cL-37" target="P18yoihbpBg77b_jh4cL-42" edge="1">
          <mxGeometry relative="1" as="geometry">
            <Array as="points">
              <mxPoint x="900" y="1357" />
              <mxPoint x="900" y="1387" />
            </Array>
          </mxGeometry>
        </mxCell>
        <mxCell id="P18yoihbpBg77b_jh4cL-37" value="&lt;b&gt;Commissioning&lt;/b&gt;" style="swimlane;fontStyle=0;childLayout=stackLayout;horizontal=1;startSize=30;horizontalStack=0;resizeParent=1;resizeParentMax=0;resizeLast=0;collapsible=1;marginBottom=0;whiteSpace=wrap;html=1;" parent="1" vertex="1">
          <mxGeometry x="915" y="1342" width="140" height="60" as="geometry" />
        </mxCell>
        <mxCell id="P18yoihbpBg77b_jh4cL-38" value="Product" style="text;strokeColor=none;fillColor=none;align=left;verticalAlign=middle;spacingLeft=4;spacingRight=4;overflow=hidden;points=[[0,0.5],[1,0.5]];portConstraint=eastwest;rotatable=0;whiteSpace=wrap;html=1;" parent="P18yoihbpBg77b_jh4cL-37" vertex="1">
          <mxGeometry y="30" width="140" height="30" as="geometry" />
        </mxCell>
        <mxCell id="b0_iLcOauBu5iKae1qTI-182" style="edgeStyle=orthogonalEdgeStyle;rounded=0;orthogonalLoop=1;jettySize=auto;html=1;exitX=0;exitY=0.25;exitDx=0;exitDy=0;" parent="1" source="P18yoihbpBg77b_jh4cL-41" target="P18yoihbpBg77b_jh4cL-50" edge="1">
          <mxGeometry relative="1" as="geometry" />
        </mxCell>
        <mxCell id="P18yoihbpBg77b_jh4cL-41" value="&lt;b&gt;Powder coating&lt;/b&gt;" style="swimlane;fontStyle=0;childLayout=stackLayout;horizontal=1;startSize=30;horizontalStack=0;resizeParent=1;resizeParentMax=0;resizeLast=0;collapsible=1;marginBottom=0;whiteSpace=wrap;html=1;" parent="1" vertex="1">
          <mxGeometry x="750" y="1342" width="140" height="60" as="geometry" />
        </mxCell>
        <mxCell id="P18yoihbpBg77b_jh4cL-42" value="Product" style="text;strokeColor=none;fillColor=none;align=left;verticalAlign=middle;spacingLeft=4;spacingRight=4;overflow=hidden;points=[[0,0.5],[1,0.5]];portConstraint=eastwest;rotatable=0;whiteSpace=wrap;html=1;" parent="P18yoihbpBg77b_jh4cL-41" vertex="1">
          <mxGeometry y="30" width="140" height="30" as="geometry" />
        </mxCell>
        <mxCell id="b0_iLcOauBu5iKae1qTI-185" style="edgeStyle=orthogonalEdgeStyle;rounded=0;orthogonalLoop=1;jettySize=auto;html=1;exitX=0;exitY=0.25;exitDx=0;exitDy=0;entryX=1;entryY=0.5;entryDx=0;entryDy=0;" parent="1" source="P18yoihbpBg77b_jh4cL-45" target="P18yoihbpBg77b_jh4cL-65" edge="1">
          <mxGeometry relative="1" as="geometry">
            <mxPoint x="520" y="1370" as="targetPoint" />
          </mxGeometry>
        </mxCell>
        <mxCell id="P18yoihbpBg77b_jh4cL-45" value="&lt;b&gt;Oven 1&lt;/b&gt;" style="swimlane;fontStyle=0;childLayout=stackLayout;horizontal=1;startSize=30;horizontalStack=0;resizeParent=1;resizeParentMax=0;resizeLast=0;collapsible=1;marginBottom=0;whiteSpace=wrap;html=1;" parent="1" vertex="1">
          <mxGeometry x="550" y="1297" width="140" height="60" as="geometry" />
        </mxCell>
        <mxCell id="b0_iLcOauBu5iKae1qTI-183" style="edgeStyle=orthogonalEdgeStyle;rounded=0;orthogonalLoop=1;jettySize=auto;html=1;exitX=1;exitY=0.5;exitDx=0;exitDy=0;startArrow=classic;startFill=1;endArrow=none;endFill=0;" parent="P18yoihbpBg77b_jh4cL-45" source="P18yoihbpBg77b_jh4cL-46" edge="1">
          <mxGeometry relative="1" as="geometry">
            <mxPoint x="170" y="63" as="targetPoint" />
          </mxGeometry>
        </mxCell>
        <mxCell id="P18yoihbpBg77b_jh4cL-46" value="Product" style="text;strokeColor=none;fillColor=none;align=left;verticalAlign=middle;spacingLeft=4;spacingRight=4;overflow=hidden;points=[[0,0.5],[1,0.5]];portConstraint=eastwest;rotatable=0;whiteSpace=wrap;html=1;" parent="P18yoihbpBg77b_jh4cL-45" vertex="1">
          <mxGeometry y="30" width="140" height="30" as="geometry" />
        </mxCell>
        <mxCell id="b0_iLcOauBu5iKae1qTI-184" style="edgeStyle=orthogonalEdgeStyle;rounded=0;orthogonalLoop=1;jettySize=auto;html=1;exitX=0;exitY=0.25;exitDx=0;exitDy=0;entryX=1;entryY=0.5;entryDx=0;entryDy=0;" parent="1" source="P18yoihbpBg77b_jh4cL-49" target="P18yoihbpBg77b_jh4cL-66" edge="1">
          <mxGeometry relative="1" as="geometry" />
        </mxCell>
        <mxCell id="P18yoihbpBg77b_jh4cL-49" value="&lt;b&gt;Oven 2&lt;/b&gt;" style="swimlane;fontStyle=0;childLayout=stackLayout;horizontal=1;startSize=30;horizontalStack=0;resizeParent=1;resizeParentMax=0;resizeLast=0;collapsible=1;marginBottom=0;whiteSpace=wrap;html=1;" parent="1" vertex="1">
          <mxGeometry x="550" y="1441" width="140" height="60" as="geometry" />
        </mxCell>
        <mxCell id="P18yoihbpBg77b_jh4cL-50" value="Product" style="text;strokeColor=none;fillColor=none;align=left;verticalAlign=middle;spacingLeft=4;spacingRight=4;overflow=hidden;points=[[0,0.5],[1,0.5]];portConstraint=eastwest;rotatable=0;whiteSpace=wrap;html=1;" parent="P18yoihbpBg77b_jh4cL-49" vertex="1">
          <mxGeometry y="30" width="140" height="30" as="geometry" />
        </mxCell>
        <mxCell id="b0_iLcOauBu5iKae1qTI-191" style="edgeStyle=orthogonalEdgeStyle;rounded=0;orthogonalLoop=1;jettySize=auto;html=1;exitX=0;exitY=0.25;exitDx=0;exitDy=0;" parent="1" source="P18yoihbpBg77b_jh4cL-65" target="P18yoihbpBg77b_jh4cL-70" edge="1">
          <mxGeometry relative="1" as="geometry" />
        </mxCell>
        <mxCell id="P18yoihbpBg77b_jh4cL-65" value="&lt;b&gt;Montage&lt;/b&gt;" style="swimlane;fontStyle=0;childLayout=stackLayout;horizontal=1;startSize=30;horizontalStack=0;resizeParent=1;resizeParentMax=0;resizeLast=0;collapsible=1;marginBottom=0;whiteSpace=wrap;html=1;" parent="1" vertex="1">
          <mxGeometry x="355" y="1328" width="140" height="90" as="geometry" />
        </mxCell>
        <mxCell id="P18yoihbpBg77b_jh4cL-66" value="Products" style="text;strokeColor=none;fillColor=none;align=left;verticalAlign=middle;spacingLeft=4;spacingRight=4;overflow=hidden;points=[[0,0.5],[1,0.5]];portConstraint=eastwest;rotatable=0;whiteSpace=wrap;html=1;" parent="P18yoihbpBg77b_jh4cL-65" vertex="1">
          <mxGeometry y="30" width="140" height="30" as="geometry" />
        </mxCell>
        <mxCell id="P18yoihbpBg77b_jh4cL-67" value="Base to manufacture" style="text;strokeColor=none;fillColor=none;align=left;verticalAlign=middle;spacingLeft=4;spacingRight=4;overflow=hidden;points=[[0,0.5],[1,0.5]];portConstraint=eastwest;rotatable=0;whiteSpace=wrap;html=1;" parent="P18yoihbpBg77b_jh4cL-65" vertex="1">
          <mxGeometry y="60" width="140" height="30" as="geometry" />
        </mxCell>
        <mxCell id="P18yoihbpBg77b_jh4cL-69" value="&lt;b&gt;Electrical Functions Verification&lt;/b&gt;" style="swimlane;fontStyle=0;childLayout=stackLayout;horizontal=1;startSize=30;horizontalStack=0;resizeParent=1;resizeParentMax=0;resizeLast=0;collapsible=1;marginBottom=0;whiteSpace=wrap;html=1;" parent="1" vertex="1">
          <mxGeometry x="180" y="1328" width="140" height="90" as="geometry" />
        </mxCell>
        <mxCell id="P18yoihbpBg77b_jh4cL-70" value="mounted products" style="text;strokeColor=none;fillColor=none;align=left;verticalAlign=middle;spacingLeft=4;spacingRight=4;overflow=hidden;points=[[0,0.5],[1,0.5]];portConstraint=eastwest;rotatable=0;whiteSpace=wrap;html=1;" parent="P18yoihbpBg77b_jh4cL-69" vertex="1">
          <mxGeometry y="30" width="140" height="30" as="geometry" />
        </mxCell>
        <mxCell id="P18yoihbpBg77b_jh4cL-71" value="Electrical part" style="text;strokeColor=none;fillColor=none;align=left;verticalAlign=middle;spacingLeft=4;spacingRight=4;overflow=hidden;points=[[0,0.5],[1,0.5]];portConstraint=eastwest;rotatable=0;whiteSpace=wrap;html=1;" parent="P18yoihbpBg77b_jh4cL-69" vertex="1">
          <mxGeometry y="60" width="140" height="30" as="geometry" />
        </mxCell>
        <mxCell id="P18yoihbpBg77b_jh4cL-73" value="&lt;b&gt;Packaging&lt;/b&gt;" style="swimlane;fontStyle=0;childLayout=stackLayout;horizontal=1;startSize=30;horizontalStack=0;resizeParent=1;resizeParentMax=0;resizeLast=0;collapsible=1;marginBottom=0;whiteSpace=wrap;html=1;" parent="1" vertex="1">
          <mxGeometry y="1343" width="140" height="60" as="geometry" />
        </mxCell>
        <mxCell id="P18yoihbpBg77b_jh4cL-74" value="mounted products" style="text;strokeColor=none;fillColor=none;align=left;verticalAlign=middle;spacingLeft=4;spacingRight=4;overflow=hidden;points=[[0,0.5],[1,0.5]];portConstraint=eastwest;rotatable=0;whiteSpace=wrap;html=1;" parent="P18yoihbpBg77b_jh4cL-73" vertex="1">
          <mxGeometry y="30" width="140" height="30" as="geometry" />
        </mxCell>
        <mxCell id="P18yoihbpBg77b_jh4cL-77" value="&lt;b&gt;3D Printer&lt;/b&gt;" style="swimlane;fontStyle=0;childLayout=stackLayout;horizontal=1;startSize=30;horizontalStack=0;resizeParent=1;resizeParentMax=0;resizeLast=0;collapsible=1;marginBottom=0;whiteSpace=wrap;html=1;" parent="1" vertex="1">
          <mxGeometry x="355" y="1503" width="140" height="90" as="geometry" />
        </mxCell>
        <mxCell id="P18yoihbpBg77b_jh4cL-78" value="Quantity" style="text;strokeColor=none;fillColor=none;align=left;verticalAlign=middle;spacingLeft=4;spacingRight=4;overflow=hidden;points=[[0,0.5],[1,0.5]];portConstraint=eastwest;rotatable=0;whiteSpace=wrap;html=1;" parent="P18yoihbpBg77b_jh4cL-77" vertex="1">
          <mxGeometry y="30" width="140" height="30" as="geometry" />
        </mxCell>
        <mxCell id="P18yoihbpBg77b_jh4cL-80" value="Usage of filament (length)" style="text;strokeColor=none;fillColor=none;align=left;verticalAlign=middle;spacingLeft=4;spacingRight=4;overflow=hidden;points=[[0,0.5],[1,0.5]];portConstraint=eastwest;rotatable=0;whiteSpace=wrap;html=1;" parent="P18yoihbpBg77b_jh4cL-77" vertex="1">
          <mxGeometry y="60" width="140" height="30" as="geometry" />
        </mxCell>
        <mxCell id="b0_iLcOauBu5iKae1qTI-179" style="edgeStyle=orthogonalEdgeStyle;rounded=0;orthogonalLoop=1;jettySize=auto;html=1;exitX=0.25;exitY=0;exitDx=0;exitDy=0;entryX=0;entryY=0.5;entryDx=0;entryDy=0;" parent="1" source="P18yoihbpBg77b_jh4cL-81" target="P18yoihbpBg77b_jh4cL-30" edge="1">
          <mxGeometry relative="1" as="geometry">
            <Array as="points">
              <mxPoint x="530" y="1128" />
              <mxPoint x="530" y="915" />
            </Array>
          </mxGeometry>
        </mxCell>
        <mxCell id="P18yoihbpBg77b_jh4cL-81" value="&lt;b&gt;Laser&lt;/b&gt;" style="swimlane;fontStyle=0;childLayout=stackLayout;horizontal=1;startSize=30;horizontalStack=0;resizeParent=1;resizeParentMax=0;resizeLast=0;collapsible=1;marginBottom=0;whiteSpace=wrap;html=1;" parent="1" vertex="1">
          <mxGeometry x="550" y="1128" width="140" height="90" as="geometry" />
        </mxCell>
        <mxCell id="P18yoihbpBg77b_jh4cL-82" value="Product" style="text;strokeColor=none;fillColor=none;align=left;verticalAlign=middle;spacingLeft=4;spacingRight=4;overflow=hidden;points=[[0,0.5],[1,0.5]];portConstraint=eastwest;rotatable=0;whiteSpace=wrap;html=1;" parent="P18yoihbpBg77b_jh4cL-81" vertex="1">
          <mxGeometry y="30" width="140" height="30" as="geometry" />
        </mxCell>
        <mxCell id="P18yoihbpBg77b_jh4cL-83" value="Volume of cutting gas" style="text;strokeColor=none;fillColor=none;align=left;verticalAlign=middle;spacingLeft=4;spacingRight=4;overflow=hidden;points=[[0,0.5],[1,0.5]];portConstraint=eastwest;rotatable=0;whiteSpace=wrap;html=1;" parent="P18yoihbpBg77b_jh4cL-81" vertex="1">
          <mxGeometry y="60" width="140" height="30" as="geometry" />
        </mxCell>
        <mxCell id="b0_iLcOauBu5iKae1qTI-180" style="edgeStyle=orthogonalEdgeStyle;rounded=0;orthogonalLoop=1;jettySize=auto;html=1;exitX=1;exitY=0.5;exitDx=0;exitDy=0;exitPerimeter=0;" parent="1" source="P18yoihbpBg77b_jh4cL-85" target="P18yoihbpBg77b_jh4cL-38" edge="1">
          <mxGeometry relative="1" as="geometry">
            <Array as="points">
              <mxPoint x="1080" y="930" />
              <mxPoint x="1080" y="1387" />
            </Array>
          </mxGeometry>
        </mxCell>
        <mxCell id="b0_iLcOauBu5iKae1qTI-205" style="edgeStyle=orthogonalEdgeStyle;rounded=0;orthogonalLoop=1;jettySize=auto;html=1;exitX=0.5;exitY=1;exitDx=0;exitDy=0;exitPerimeter=0;entryX=1;entryY=0.5;entryDx=0;entryDy=0;" parent="1" source="P18yoihbpBg77b_jh4cL-85" target="P18yoihbpBg77b_jh4cL-86" edge="1">
          <mxGeometry relative="1" as="geometry" />
        </mxCell>
        <mxCell id="P18yoihbpBg77b_jh4cL-85" value="Store:&lt;div&gt;&lt;span style=&quot;background-color: initial;&quot;&gt;- ver. prod. with laser stamped&lt;/span&gt;&lt;br&gt;&lt;/div&gt;&lt;div&gt;&lt;span style=&quot;background-color: initial;&quot;&gt;- ver. prod. without laser stamped&lt;/span&gt;&lt;/div&gt;" style="shape=cylinder3;whiteSpace=wrap;html=1;boundedLbl=1;backgroundOutline=1;size=15;" parent="1" vertex="1">
          <mxGeometry x="940" y="865" width="90" height="130" as="geometry" />
        </mxCell>
        <mxCell id="b0_iLcOauBu5iKae1qTI-164" style="edgeStyle=orthogonalEdgeStyle;rounded=0;orthogonalLoop=1;jettySize=auto;html=1;entryX=1;entryY=0.5;entryDx=0;entryDy=0;" parent="1" source="P18yoihbpBg77b_jh4cL-86" target="b0_iLcOauBu5iKae1qTI-163" edge="1">
          <mxGeometry relative="1" as="geometry" />
        </mxCell>
        <mxCell id="b0_iLcOauBu5iKae1qTI-178" style="edgeStyle=orthogonalEdgeStyle;rounded=0;orthogonalLoop=1;jettySize=auto;html=1;" parent="1" source="P18yoihbpBg77b_jh4cL-86" target="P18yoihbpBg77b_jh4cL-82" edge="1">
          <mxGeometry relative="1" as="geometry">
            <Array as="points">
              <mxPoint x="620" y="1110" />
              <mxPoint x="710" y="1110" />
              <mxPoint x="710" y="1173" />
            </Array>
          </mxGeometry>
        </mxCell>
        <mxCell id="P18yoihbpBg77b_jh4cL-86" value="IF" style="rhombus;whiteSpace=wrap;html=1;" parent="1" vertex="1">
          <mxGeometry x="595" y="1045" width="50" height="50" as="geometry" />
        </mxCell>
        <mxCell id="P18yoihbpBg77b_jh4cL-97" value="" style="triangle;whiteSpace=wrap;html=1;rotation=90;fillColor=#d5e8d4;strokeColor=#82b366;" parent="1" vertex="1">
          <mxGeometry x="966" y="727" width="37.5" height="50" as="geometry" />
        </mxCell>
        <mxCell id="P18yoihbpBg77b_jh4cL-98" value="&lt;h1 style=&quot;text-align: center; margin-top: 0px; line-height: 60%;&quot;&gt;&lt;font style=&quot;font-size: 12px;&quot;&gt;Product Order&lt;/font&gt;&lt;/h1&gt;&lt;p style=&quot;font-size: 11px; line-height: 0%;&quot;&gt;&lt;font style=&quot;font-size: 11px;&quot;&gt;Specification:&lt;/font&gt;&lt;/p&gt;&lt;p style=&quot;font-size: 11px; line-height: 120%;&quot;&gt;&lt;/p&gt;&lt;ul style=&quot;font-size: 11px; line-height: 120%;&quot;&gt;&lt;li style=&quot;&quot;&gt;&lt;font style=&quot;font-size: 11px;&quot;&gt;Quantity of each product type (A, B, C, D, E, F)&lt;/font&gt;&lt;/li&gt;&lt;li style=&quot;&quot;&gt;&lt;font style=&quot;font-size: 11px;&quot;&gt;Always of 4 products per montage&lt;/font&gt;&lt;/li&gt;&lt;li style=&quot;&quot;&gt;&lt;font style=&quot;font-size: 11px;&quot;&gt;Specify the base&lt;/font&gt;&lt;/li&gt;&lt;/ul&gt;&lt;p&gt;&lt;/p&gt;" style="text;html=1;whiteSpace=wrap;overflow=hidden;rounded=0;" parent="1" vertex="1">
          <mxGeometry x="802" y="732" width="166.25" height="120" as="geometry" />
        </mxCell>
        <mxCell id="P18yoihbpBg77b_jh4cL-99" value="Storage milled Products (A, B, C, D, E, F)" style="text;html=1;align=center;verticalAlign=middle;whiteSpace=wrap;rounded=0;" parent="1" vertex="1">
          <mxGeometry x="192.5" y="917" width="80" height="30" as="geometry" />
        </mxCell>
        <mxCell id="b0_iLcOauBu5iKae1qTI-175" style="edgeStyle=orthogonalEdgeStyle;rounded=0;orthogonalLoop=1;jettySize=auto;html=1;entryX=0.5;entryY=0;entryDx=0;entryDy=0;" parent="1" source="P18yoihbpBg77b_jh4cL-101" target="P18yoihbpBg77b_jh4cL-24" edge="1">
          <mxGeometry relative="1" as="geometry" />
        </mxCell>
        <mxCell id="P18yoihbpBg77b_jh4cL-101" value="&lt;b&gt;Vendor Sawing&lt;/b&gt;" style="swimlane;fontStyle=0;childLayout=stackLayout;horizontal=1;startSize=30;horizontalStack=0;resizeParent=1;resizeParentMax=0;resizeLast=0;collapsible=1;marginBottom=0;whiteSpace=wrap;html=1;" parent="1" vertex="1">
          <mxGeometry x="350" y="740" width="140" height="90" as="geometry" />
        </mxCell>
        <mxCell id="P18yoihbpBg77b_jh4cL-102" value="Number of sawing cutting tool to delivery" style="text;strokeColor=none;fillColor=none;align=left;verticalAlign=middle;spacingLeft=4;spacingRight=4;overflow=hidden;points=[[0,0.5],[1,0.5]];portConstraint=eastwest;rotatable=0;whiteSpace=wrap;html=1;" parent="P18yoihbpBg77b_jh4cL-101" vertex="1">
          <mxGeometry y="30" width="140" height="30" as="geometry" />
        </mxCell>
        <mxCell id="P18yoihbpBg77b_jh4cL-103" value="Time to delivery" style="text;strokeColor=none;fillColor=none;align=left;verticalAlign=middle;spacingLeft=4;spacingRight=4;overflow=hidden;points=[[0,0.5],[1,0.5]];portConstraint=eastwest;rotatable=0;whiteSpace=wrap;html=1;" parent="P18yoihbpBg77b_jh4cL-101" vertex="1">
          <mxGeometry y="60" width="140" height="30" as="geometry" />
        </mxCell>
        <mxCell id="P18yoihbpBg77b_jh4cL-105" value="&lt;b&gt;Vendor Laser&lt;/b&gt;" style="swimlane;fontStyle=0;childLayout=stackLayout;horizontal=1;startSize=30;horizontalStack=0;resizeParent=1;resizeParentMax=0;resizeLast=0;collapsible=1;marginBottom=0;whiteSpace=wrap;html=1;" parent="1" vertex="1">
          <mxGeometry x="738.13" y="1128" width="140" height="90" as="geometry" />
        </mxCell>
        <mxCell id="P18yoihbpBg77b_jh4cL-106" value="Cutting Gas" style="text;strokeColor=none;fillColor=none;align=left;verticalAlign=middle;spacingLeft=4;spacingRight=4;overflow=hidden;points=[[0,0.5],[1,0.5]];portConstraint=eastwest;rotatable=0;whiteSpace=wrap;html=1;" parent="P18yoihbpBg77b_jh4cL-105" vertex="1">
          <mxGeometry y="30" width="140" height="30" as="geometry" />
        </mxCell>
        <mxCell id="P18yoihbpBg77b_jh4cL-107" value="Time to delivery" style="text;strokeColor=none;fillColor=none;align=left;verticalAlign=middle;spacingLeft=4;spacingRight=4;overflow=hidden;points=[[0,0.5],[1,0.5]];portConstraint=eastwest;rotatable=0;whiteSpace=wrap;html=1;" parent="P18yoihbpBg77b_jh4cL-105" vertex="1">
          <mxGeometry y="60" width="140" height="30" as="geometry" />
        </mxCell>
        <mxCell id="b0_iLcOauBu5iKae1qTI-242" style="edgeStyle=orthogonalEdgeStyle;rounded=0;orthogonalLoop=1;jettySize=auto;html=1;exitX=0.013;exitY=0.136;exitDx=0;exitDy=0;exitPerimeter=0;entryX=0.993;entryY=0.435;entryDx=0;entryDy=0;entryPerimeter=0;" parent="1" source="P18yoihbpBg77b_jh4cL-108" target="P18yoihbpBg77b_jh4cL-80" edge="1">
          <mxGeometry relative="1" as="geometry">
            <mxPoint x="500" y="1570" as="targetPoint" />
            <Array as="points">
              <mxPoint x="520" y="1600" />
              <mxPoint x="520" y="1576" />
            </Array>
          </mxGeometry>
        </mxCell>
        <mxCell id="P18yoihbpBg77b_jh4cL-108" value="&lt;b&gt;Vendor 3D Printer&lt;/b&gt;" style="swimlane;fontStyle=0;childLayout=stackLayout;horizontal=1;startSize=30;horizontalStack=0;resizeParent=1;resizeParentMax=0;resizeLast=0;collapsible=1;marginBottom=0;whiteSpace=wrap;html=1;" parent="1" vertex="1">
          <mxGeometry x="540" y="1588" width="140" height="90" as="geometry">
            <mxRectangle x="355" y="1748" width="140" height="30" as="alternateBounds" />
          </mxGeometry>
        </mxCell>
        <mxCell id="P18yoihbpBg77b_jh4cL-109" value="Fixed length of filament delivery" style="text;strokeColor=none;fillColor=none;align=left;verticalAlign=middle;spacingLeft=4;spacingRight=4;overflow=hidden;points=[[0,0.5],[1,0.5]];portConstraint=eastwest;rotatable=0;whiteSpace=wrap;html=1;" parent="P18yoihbpBg77b_jh4cL-108" vertex="1">
          <mxGeometry y="30" width="140" height="30" as="geometry" />
        </mxCell>
        <mxCell id="P18yoihbpBg77b_jh4cL-110" value="Time to delivery" style="text;strokeColor=none;fillColor=none;align=left;verticalAlign=middle;spacingLeft=4;spacingRight=4;overflow=hidden;points=[[0,0.5],[1,0.5]];portConstraint=eastwest;rotatable=0;whiteSpace=wrap;html=1;" parent="P18yoihbpBg77b_jh4cL-108" vertex="1">
          <mxGeometry y="60" width="140" height="30" as="geometry" />
        </mxCell>
        <mxCell id="P18yoihbpBg77b_jh4cL-111" value="&lt;b&gt;Vendor Electrical Parts&lt;/b&gt;" style="swimlane;fontStyle=0;childLayout=stackLayout;horizontal=1;startSize=30;horizontalStack=0;resizeParent=1;resizeParentMax=0;resizeLast=0;collapsible=1;marginBottom=0;whiteSpace=wrap;html=1;" parent="1" vertex="1">
          <mxGeometry x="180" y="1588" width="140" height="90" as="geometry">
            <mxRectangle x="180" y="1718" width="170" height="30" as="alternateBounds" />
          </mxGeometry>
        </mxCell>
        <mxCell id="P18yoihbpBg77b_jh4cL-112" value="Quantity of parts able to delivery" style="text;strokeColor=none;fillColor=none;align=left;verticalAlign=middle;spacingLeft=4;spacingRight=4;overflow=hidden;points=[[0,0.5],[1,0.5]];portConstraint=eastwest;rotatable=0;whiteSpace=wrap;html=1;" parent="P18yoihbpBg77b_jh4cL-111" vertex="1">
          <mxGeometry y="30" width="140" height="30" as="geometry" />
        </mxCell>
        <mxCell id="P18yoihbpBg77b_jh4cL-113" value="Time to delivery" style="text;strokeColor=none;fillColor=none;align=left;verticalAlign=middle;spacingLeft=4;spacingRight=4;overflow=hidden;points=[[0,0.5],[1,0.5]];portConstraint=eastwest;rotatable=0;whiteSpace=wrap;html=1;" parent="P18yoihbpBg77b_jh4cL-111" vertex="1">
          <mxGeometry y="60" width="140" height="30" as="geometry" />
        </mxCell>
        <mxCell id="b0_iLcOauBu5iKae1qTI-188" style="edgeStyle=orthogonalEdgeStyle;rounded=0;orthogonalLoop=1;jettySize=auto;html=1;" parent="1" source="P18yoihbpBg77b_jh4cL-114" target="P18yoihbpBg77b_jh4cL-71" edge="1">
          <mxGeometry relative="1" as="geometry" />
        </mxCell>
        <mxCell id="P18yoihbpBg77b_jh4cL-114" value="storage electrical parts" style="shape=cylinder3;whiteSpace=wrap;html=1;boundedLbl=1;backgroundOutline=1;size=7.853655559260687;" parent="1" vertex="1">
          <mxGeometry x="210" y="1463" width="80" height="80" as="geometry" />
        </mxCell>
        <mxCell id="b0_iLcOauBu5iKae1qTI-1" value="" style="endArrow=none;dashed=1;html=1;dashPattern=1 3;strokeWidth=2;rounded=0;" parent="1" edge="1">
          <mxGeometry width="50" height="50" relative="1" as="geometry">
            <mxPoint x="-20" y="1257" as="sourcePoint" />
            <mxPoint x="1030" y="1250" as="targetPoint" />
          </mxGeometry>
        </mxCell>
        <mxCell id="b0_iLcOauBu5iKae1qTI-13" value="" style="endArrow=halfCircle;html=1;rounded=0;exitX=1;exitY=0.25;exitDx=0;exitDy=0;endFill=0;" parent="1" source="P18yoihbpBg77b_jh4cL-101" edge="1">
          <mxGeometry width="50" height="50" relative="1" as="geometry">
            <mxPoint x="510" y="790" as="sourcePoint" />
            <mxPoint x="560" y="763" as="targetPoint" />
          </mxGeometry>
        </mxCell>
        <mxCell id="b0_iLcOauBu5iKae1qTI-15" value="Signal&amp;nbsp;&lt;div&gt;to order&lt;/div&gt;" style="edgeLabel;html=1;align=center;verticalAlign=middle;resizable=0;points=[];" parent="b0_iLcOauBu5iKae1qTI-13" vertex="1" connectable="0">
          <mxGeometry x="-0.0054" relative="1" as="geometry">
            <mxPoint as="offset" />
          </mxGeometry>
        </mxCell>
        <mxCell id="b0_iLcOauBu5iKae1qTI-16" value="" style="endArrow=halfCircle;html=1;rounded=0;exitX=1;exitY=0.25;exitDx=0;exitDy=0;endFill=0;" parent="1" edge="1">
          <mxGeometry width="50" height="50" relative="1" as="geometry">
            <mxPoint x="878.13" y="1165" as="sourcePoint" />
            <mxPoint x="948.13" y="1165" as="targetPoint" />
          </mxGeometry>
        </mxCell>
        <mxCell id="b0_iLcOauBu5iKae1qTI-17" value="Signal&amp;nbsp;&lt;div&gt;to order&lt;/div&gt;" style="edgeLabel;html=1;align=center;verticalAlign=middle;resizable=0;points=[];" parent="b0_iLcOauBu5iKae1qTI-16" vertex="1" connectable="0">
          <mxGeometry x="-0.0054" relative="1" as="geometry">
            <mxPoint as="offset" />
          </mxGeometry>
        </mxCell>
        <mxCell id="b0_iLcOauBu5iKae1qTI-25" value="" style="endArrow=none;html=1;rounded=0;exitX=1;exitY=0.25;exitDx=0;exitDy=0;startArrow=oval;startFill=1;" parent="1" edge="1">
          <mxGeometry width="50" height="50" relative="1" as="geometry">
            <mxPoint x="455" y="1138.9" as="sourcePoint" />
            <mxPoint x="550" y="1138.9" as="targetPoint" />
          </mxGeometry>
        </mxCell>
        <mxCell id="b0_iLcOauBu5iKae1qTI-26" value="Production time" style="edgeLabel;html=1;align=center;verticalAlign=middle;resizable=0;points=[];" parent="b0_iLcOauBu5iKae1qTI-25" vertex="1" connectable="0">
          <mxGeometry x="0.0888" relative="1" as="geometry">
            <mxPoint x="-5" as="offset" />
          </mxGeometry>
        </mxCell>
        <mxCell id="b0_iLcOauBu5iKae1qTI-27" value="" style="endArrow=none;html=1;rounded=0;exitX=1;exitY=0.5;exitDx=0;exitDy=0;startArrow=oval;startFill=1;" parent="1" edge="1">
          <mxGeometry width="50" height="50" relative="1" as="geometry">
            <mxPoint x="455" y="1160.9" as="sourcePoint" />
            <mxPoint x="550" y="1160.9" as="targetPoint" />
          </mxGeometry>
        </mxCell>
        <mxCell id="b0_iLcOauBu5iKae1qTI-28" value="Rest time" style="edgeLabel;html=1;align=center;verticalAlign=middle;resizable=0;points=[];" parent="b0_iLcOauBu5iKae1qTI-27" vertex="1" connectable="0">
          <mxGeometry x="0.2667" y="-2" relative="1" as="geometry">
            <mxPoint x="-27" y="-2" as="offset" />
          </mxGeometry>
        </mxCell>
        <mxCell id="b0_iLcOauBu5iKae1qTI-29" value="" style="endArrow=none;html=1;rounded=0;exitX=1;exitY=0.25;exitDx=0;exitDy=0;startArrow=oval;startFill=1;" parent="1" edge="1">
          <mxGeometry width="50" height="50" relative="1" as="geometry">
            <mxPoint x="455" y="1183.23" as="sourcePoint" />
            <mxPoint x="550" y="1184" as="targetPoint" />
          </mxGeometry>
        </mxCell>
        <mxCell id="b0_iLcOauBu5iKae1qTI-30" value="Occupied" style="edgeLabel;html=1;align=center;verticalAlign=middle;resizable=0;points=[];" parent="b0_iLcOauBu5iKae1qTI-29" vertex="1" connectable="0">
          <mxGeometry x="-0.0054" relative="1" as="geometry">
            <mxPoint x="-13" as="offset" />
          </mxGeometry>
        </mxCell>
        <mxCell id="b0_iLcOauBu5iKae1qTI-31" value="" style="endArrow=none;html=1;rounded=0;exitX=1;exitY=0.25;exitDx=0;exitDy=0;startArrow=oval;startFill=1;" parent="1" edge="1">
          <mxGeometry width="50" height="50" relative="1" as="geometry">
            <mxPoint x="455" y="1212" as="sourcePoint" />
            <mxPoint x="550" y="1212" as="targetPoint" />
          </mxGeometry>
        </mxCell>
        <mxCell id="b0_iLcOauBu5iKae1qTI-32" value="Total Filament&amp;nbsp;&lt;div&gt;&lt;div&gt;Length&lt;/div&gt;&lt;/div&gt;" style="edgeLabel;html=1;align=center;verticalAlign=middle;resizable=0;points=[];" parent="b0_iLcOauBu5iKae1qTI-31" vertex="1" connectable="0">
          <mxGeometry x="-0.0054" relative="1" as="geometry">
            <mxPoint x="1" as="offset" />
          </mxGeometry>
        </mxCell>
        <mxCell id="b0_iLcOauBu5iKae1qTI-33" value="" style="endArrow=none;html=1;rounded=0;entryX=0.164;entryY=0.996;entryDx=0;entryDy=0;entryPerimeter=0;" parent="1" edge="1">
          <mxGeometry width="50" height="50" relative="1" as="geometry">
            <mxPoint x="375" y="1040" as="sourcePoint" />
            <mxPoint x="375" y="959.63" as="targetPoint" />
          </mxGeometry>
        </mxCell>
        <mxCell id="b0_iLcOauBu5iKae1qTI-34" value="" style="endArrow=oval;html=1;rounded=0;exitX=1;exitY=0.25;exitDx=0;exitDy=0;endFill=1;" parent="1" edge="1">
          <mxGeometry width="50" height="50" relative="1" as="geometry">
            <mxPoint x="375" y="975.63" as="sourcePoint" />
            <mxPoint x="470" y="975.63" as="targetPoint" />
          </mxGeometry>
        </mxCell>
        <mxCell id="b0_iLcOauBu5iKae1qTI-35" value="Production time" style="edgeLabel;html=1;align=center;verticalAlign=middle;resizable=0;points=[];" parent="b0_iLcOauBu5iKae1qTI-34" vertex="1" connectable="0">
          <mxGeometry x="0.0888" relative="1" as="geometry">
            <mxPoint x="-7" as="offset" />
          </mxGeometry>
        </mxCell>
        <mxCell id="b0_iLcOauBu5iKae1qTI-36" value="" style="endArrow=oval;html=1;rounded=0;exitX=1;exitY=0.5;exitDx=0;exitDy=0;endFill=1;" parent="1" edge="1">
          <mxGeometry width="50" height="50" relative="1" as="geometry">
            <mxPoint x="375" y="994.63" as="sourcePoint" />
            <mxPoint x="470" y="994.63" as="targetPoint" />
          </mxGeometry>
        </mxCell>
        <mxCell id="b0_iLcOauBu5iKae1qTI-37" value="Rest time" style="edgeLabel;html=1;align=center;verticalAlign=middle;resizable=0;points=[];" parent="b0_iLcOauBu5iKae1qTI-36" vertex="1" connectable="0">
          <mxGeometry x="0.2667" y="-2" relative="1" as="geometry">
            <mxPoint x="-30" y="-1" as="offset" />
          </mxGeometry>
        </mxCell>
        <mxCell id="b0_iLcOauBu5iKae1qTI-38" value="" style="endArrow=oval;html=1;rounded=0;exitX=1;exitY=0.25;exitDx=0;exitDy=0;endFill=1;" parent="1" edge="1">
          <mxGeometry width="50" height="50" relative="1" as="geometry">
            <mxPoint x="375" y="1015.63" as="sourcePoint" />
            <mxPoint x="470" y="1016" as="targetPoint" />
          </mxGeometry>
        </mxCell>
        <mxCell id="b0_iLcOauBu5iKae1qTI-39" value="Occupied" style="edgeLabel;html=1;align=center;verticalAlign=middle;resizable=0;points=[];" parent="b0_iLcOauBu5iKae1qTI-38" vertex="1" connectable="0">
          <mxGeometry x="-0.0054" relative="1" as="geometry">
            <mxPoint x="-17" as="offset" />
          </mxGeometry>
        </mxCell>
        <mxCell id="b0_iLcOauBu5iKae1qTI-43" value="" style="endArrow=oval;html=1;rounded=0;exitX=1;exitY=0.25;exitDx=0;exitDy=0;endFill=1;" parent="1" edge="1">
          <mxGeometry width="50" height="50" relative="1" as="geometry">
            <mxPoint x="375" y="1039.8100000000002" as="sourcePoint" />
            <mxPoint x="470" y="1040.18" as="targetPoint" />
          </mxGeometry>
        </mxCell>
        <mxCell id="b0_iLcOauBu5iKae1qTI-44" value="Quantity Cutting&lt;div&gt;Tool&lt;/div&gt;" style="edgeLabel;html=1;align=center;verticalAlign=middle;resizable=0;points=[];" parent="b0_iLcOauBu5iKae1qTI-43" vertex="1" connectable="0">
          <mxGeometry x="-0.0054" relative="1" as="geometry">
            <mxPoint as="offset" />
          </mxGeometry>
        </mxCell>
        <mxCell id="b0_iLcOauBu5iKae1qTI-94" value="" style="endArrow=none;html=1;rounded=0;entryX=0.164;entryY=0.996;entryDx=0;entryDy=0;entryPerimeter=0;" parent="1" edge="1">
          <mxGeometry width="50" height="50" relative="1" as="geometry">
            <mxPoint x="25" y="1343" as="sourcePoint" />
            <mxPoint x="25" y="1283" as="targetPoint" />
          </mxGeometry>
        </mxCell>
        <mxCell id="b0_iLcOauBu5iKae1qTI-95" value="" style="endArrow=oval;html=1;rounded=0;exitX=1;exitY=0.25;exitDx=0;exitDy=0;endFill=1;" parent="1" edge="1">
          <mxGeometry width="50" height="50" relative="1" as="geometry">
            <mxPoint x="25" y="1283" as="sourcePoint" />
            <mxPoint x="120" y="1283" as="targetPoint" />
          </mxGeometry>
        </mxCell>
        <mxCell id="b0_iLcOauBu5iKae1qTI-96" value="Production time" style="edgeLabel;html=1;align=center;verticalAlign=middle;resizable=0;points=[];" parent="b0_iLcOauBu5iKae1qTI-95" vertex="1" connectable="0">
          <mxGeometry x="0.0888" relative="1" as="geometry">
            <mxPoint x="-6" as="offset" />
          </mxGeometry>
        </mxCell>
        <mxCell id="b0_iLcOauBu5iKae1qTI-97" value="" style="endArrow=oval;html=1;rounded=0;exitX=1;exitY=0.5;exitDx=0;exitDy=0;endFill=1;" parent="1" edge="1">
          <mxGeometry width="50" height="50" relative="1" as="geometry">
            <mxPoint x="25" y="1300" as="sourcePoint" />
            <mxPoint x="120" y="1300" as="targetPoint" />
          </mxGeometry>
        </mxCell>
        <mxCell id="b0_iLcOauBu5iKae1qTI-98" value="Rest time" style="edgeLabel;html=1;align=center;verticalAlign=middle;resizable=0;points=[];" parent="b0_iLcOauBu5iKae1qTI-97" vertex="1" connectable="0">
          <mxGeometry x="0.2667" y="-2" relative="1" as="geometry">
            <mxPoint x="-29" y="-1" as="offset" />
          </mxGeometry>
        </mxCell>
        <mxCell id="b0_iLcOauBu5iKae1qTI-99" value="" style="endArrow=oval;html=1;rounded=0;exitX=1;exitY=0.25;exitDx=0;exitDy=0;endFill=1;" parent="1" edge="1">
          <mxGeometry width="50" height="50" relative="1" as="geometry">
            <mxPoint x="25" y="1317" as="sourcePoint" />
            <mxPoint x="120" y="1317" as="targetPoint" />
          </mxGeometry>
        </mxCell>
        <mxCell id="b0_iLcOauBu5iKae1qTI-100" value="Occupied" style="edgeLabel;html=1;align=center;verticalAlign=middle;resizable=0;points=[];" parent="b0_iLcOauBu5iKae1qTI-99" vertex="1" connectable="0">
          <mxGeometry x="-0.0054" relative="1" as="geometry">
            <mxPoint x="-16" as="offset" />
          </mxGeometry>
        </mxCell>
        <mxCell id="b0_iLcOauBu5iKae1qTI-133" value="" style="endArrow=halfCircle;html=1;rounded=0;exitX=1;exitY=0.25;exitDx=0;exitDy=0;endFill=0;" parent="1" edge="1">
          <mxGeometry width="50" height="50" relative="1" as="geometry">
            <mxPoint x="680" y="1608" as="sourcePoint" />
            <mxPoint x="750" y="1608" as="targetPoint" />
          </mxGeometry>
        </mxCell>
        <mxCell id="b0_iLcOauBu5iKae1qTI-134" value="Signal&amp;nbsp;&lt;div&gt;to order&lt;/div&gt;" style="edgeLabel;html=1;align=center;verticalAlign=middle;resizable=0;points=[];" parent="b0_iLcOauBu5iKae1qTI-133" vertex="1" connectable="0">
          <mxGeometry x="-0.0054" relative="1" as="geometry">
            <mxPoint y="5" as="offset" />
          </mxGeometry>
        </mxCell>
        <mxCell id="b0_iLcOauBu5iKae1qTI-135" value="" style="endArrow=none;html=1;rounded=0;exitX=1;exitY=0.25;exitDx=0;exitDy=0;startArrow=halfCircle;startFill=0;" parent="1" edge="1">
          <mxGeometry width="50" height="50" relative="1" as="geometry">
            <mxPoint x="110" y="1610" as="sourcePoint" />
            <mxPoint x="180" y="1610" as="targetPoint" />
          </mxGeometry>
        </mxCell>
        <mxCell id="b0_iLcOauBu5iKae1qTI-136" value="Signal&amp;nbsp;&lt;div&gt;to order&lt;/div&gt;" style="edgeLabel;html=1;align=center;verticalAlign=middle;resizable=0;points=[];" parent="b0_iLcOauBu5iKae1qTI-135" vertex="1" connectable="0">
          <mxGeometry x="-0.0054" relative="1" as="geometry">
            <mxPoint as="offset" />
          </mxGeometry>
        </mxCell>
        <mxCell id="b0_iLcOauBu5iKae1qTI-137" value="" style="endArrow=none;html=1;rounded=0;entryX=0.164;entryY=0.996;entryDx=0;entryDy=0;entryPerimeter=0;" parent="1" edge="1">
          <mxGeometry width="50" height="50" relative="1" as="geometry">
            <mxPoint x="370" y="1680" as="sourcePoint" />
            <mxPoint x="370" y="1593" as="targetPoint" />
          </mxGeometry>
        </mxCell>
        <mxCell id="b0_iLcOauBu5iKae1qTI-138" value="" style="endArrow=oval;html=1;rounded=0;exitX=1;exitY=0.25;exitDx=0;exitDy=0;endFill=1;" parent="1" edge="1">
          <mxGeometry width="50" height="50" relative="1" as="geometry">
            <mxPoint x="370" y="1610" as="sourcePoint" />
            <mxPoint x="465" y="1610" as="targetPoint" />
          </mxGeometry>
        </mxCell>
        <mxCell id="b0_iLcOauBu5iKae1qTI-139" value="Production time" style="edgeLabel;html=1;align=center;verticalAlign=middle;resizable=0;points=[];" parent="b0_iLcOauBu5iKae1qTI-138" vertex="1" connectable="0">
          <mxGeometry x="0.0888" relative="1" as="geometry">
            <mxPoint x="-6" as="offset" />
          </mxGeometry>
        </mxCell>
        <mxCell id="b0_iLcOauBu5iKae1qTI-140" value="" style="endArrow=oval;html=1;rounded=0;exitX=1;exitY=0.5;exitDx=0;exitDy=0;endFill=1;" parent="1" edge="1">
          <mxGeometry width="50" height="50" relative="1" as="geometry">
            <mxPoint x="370" y="1630" as="sourcePoint" />
            <mxPoint x="465" y="1630" as="targetPoint" />
          </mxGeometry>
        </mxCell>
        <mxCell id="b0_iLcOauBu5iKae1qTI-141" value="Rest time" style="edgeLabel;html=1;align=center;verticalAlign=middle;resizable=0;points=[];" parent="b0_iLcOauBu5iKae1qTI-140" vertex="1" connectable="0">
          <mxGeometry x="0.2667" y="-2" relative="1" as="geometry">
            <mxPoint x="-29" y="-1" as="offset" />
          </mxGeometry>
        </mxCell>
        <mxCell id="b0_iLcOauBu5iKae1qTI-142" value="" style="endArrow=oval;html=1;rounded=0;exitX=1;exitY=0.25;exitDx=0;exitDy=0;endFill=1;" parent="1" edge="1">
          <mxGeometry width="50" height="50" relative="1" as="geometry">
            <mxPoint x="370" y="1650" as="sourcePoint" />
            <mxPoint x="465" y="1650" as="targetPoint" />
          </mxGeometry>
        </mxCell>
        <mxCell id="b0_iLcOauBu5iKae1qTI-143" value="Occupied" style="edgeLabel;html=1;align=center;verticalAlign=middle;resizable=0;points=[];" parent="b0_iLcOauBu5iKae1qTI-142" vertex="1" connectable="0">
          <mxGeometry x="-0.0054" relative="1" as="geometry">
            <mxPoint x="-17" as="offset" />
          </mxGeometry>
        </mxCell>
        <mxCell id="b0_iLcOauBu5iKae1qTI-144" value="" style="endArrow=oval;html=1;rounded=0;exitX=1;exitY=0.25;exitDx=0;exitDy=0;endFill=1;" parent="1" edge="1">
          <mxGeometry width="50" height="50" relative="1" as="geometry">
            <mxPoint x="370" y="1681" as="sourcePoint" />
            <mxPoint x="465" y="1681" as="targetPoint" />
          </mxGeometry>
        </mxCell>
        <mxCell id="b0_iLcOauBu5iKae1qTI-145" value="Total Filament&lt;div&gt;&amp;nbsp;Available&lt;/div&gt;" style="edgeLabel;html=1;align=center;verticalAlign=middle;resizable=0;points=[];" parent="b0_iLcOauBu5iKae1qTI-144" vertex="1" connectable="0">
          <mxGeometry x="-0.0054" relative="1" as="geometry">
            <mxPoint x="-6" as="offset" />
          </mxGeometry>
        </mxCell>
        <mxCell id="b0_iLcOauBu5iKae1qTI-150" style="edgeStyle=orthogonalEdgeStyle;rounded=0;orthogonalLoop=1;jettySize=auto;html=1;entryX=0.5;entryY=0;entryDx=0;entryDy=0;entryPerimeter=0;" parent="1" source="P18yoihbpBg77b_jh4cL-97" target="P18yoihbpBg77b_jh4cL-85" edge="1">
          <mxGeometry relative="1" as="geometry" />
        </mxCell>
        <mxCell id="b0_iLcOauBu5iKae1qTI-151" value="STOP" style="shape=hexagon;perimeter=hexagonPerimeter2;whiteSpace=wrap;html=1;fixedSize=1;size=20;fillColor=#f8cecc;strokeColor=#b85450;" parent="1" vertex="1">
          <mxGeometry x="35" y="1470" width="70" height="50" as="geometry" />
        </mxCell>
        <mxCell id="b0_iLcOauBu5iKae1qTI-152" style="edgeStyle=orthogonalEdgeStyle;rounded=0;orthogonalLoop=1;jettySize=auto;html=1;entryX=0.5;entryY=0;entryDx=0;entryDy=0;" parent="1" source="P18yoihbpBg77b_jh4cL-74" target="b0_iLcOauBu5iKae1qTI-151" edge="1">
          <mxGeometry relative="1" as="geometry">
            <Array as="points">
              <mxPoint x="70" y="1460" />
              <mxPoint x="70" y="1460" />
            </Array>
          </mxGeometry>
        </mxCell>
        <mxCell id="b0_iLcOauBu5iKae1qTI-154" style="edgeStyle=orthogonalEdgeStyle;rounded=0;orthogonalLoop=1;jettySize=auto;html=1;entryX=1;entryY=0.5;entryDx=0;entryDy=0;entryPerimeter=0;" parent="1" target="zBvh7G9cDNqdzs31kJ-0-1" edge="1">
          <mxGeometry relative="1" as="geometry">
            <mxPoint x="985" y="770" as="sourcePoint" />
            <Array as="points">
              <mxPoint x="985" y="820" />
              <mxPoint x="1110" y="820" />
              <mxPoint x="1110" y="1580" />
              <mxPoint x="530" y="1580" />
              <mxPoint x="530" y="1459" />
              <mxPoint x="470" y="1459" />
            </Array>
          </mxGeometry>
        </mxCell>
        <mxCell id="b0_iLcOauBu5iKae1qTI-153" value="&lt;b&gt;&lt;font style=&quot;font-size: 9px;&quot;&gt;START&lt;/font&gt;&lt;/b&gt;" style="text;html=1;align=center;verticalAlign=middle;resizable=0;points=[];autosize=1;strokeColor=none;fillColor=none;" parent="1" vertex="1">
          <mxGeometry x="960" y="727" width="50" height="30" as="geometry" />
        </mxCell>
        <mxCell id="b0_iLcOauBu5iKae1qTI-156" value="1" style="text;html=1;align=center;verticalAlign=middle;whiteSpace=wrap;rounded=0;" parent="1" vertex="1">
          <mxGeometry x="475" y="1438" width="40" height="22" as="geometry" />
        </mxCell>
        <mxCell id="b0_iLcOauBu5iKae1qTI-160" value="1" style="text;html=1;align=center;verticalAlign=middle;whiteSpace=wrap;rounded=0;" parent="1" vertex="1">
          <mxGeometry x="970" y="837" width="40" height="22" as="geometry" />
        </mxCell>
        <mxCell id="b0_iLcOauBu5iKae1qTI-161" value="1" style="text;html=1;align=center;verticalAlign=middle;whiteSpace=wrap;rounded=0;" parent="1" vertex="1">
          <mxGeometry x="970" y="770" width="40" height="22" as="geometry" />
        </mxCell>
        <mxCell id="b0_iLcOauBu5iKae1qTI-165" style="edgeStyle=orthogonalEdgeStyle;rounded=0;orthogonalLoop=1;jettySize=auto;html=1;entryX=1;entryY=0.5;entryDx=0;entryDy=0;" parent="1" source="b0_iLcOauBu5iKae1qTI-163" target="P18yoihbpBg77b_jh4cL-21" edge="1">
          <mxGeometry relative="1" as="geometry">
            <Array as="points">
              <mxPoint x="200" y="1070" />
              <mxPoint x="200" y="1055" />
            </Array>
          </mxGeometry>
        </mxCell>
        <mxCell id="b0_iLcOauBu5iKae1qTI-167" style="edgeStyle=orthogonalEdgeStyle;rounded=0;orthogonalLoop=1;jettySize=auto;html=1;exitX=0.5;exitY=1;exitDx=0;exitDy=0;entryX=0;entryY=0.5;entryDx=0;entryDy=0;" parent="1" source="b0_iLcOauBu5iKae1qTI-163" target="P18yoihbpBg77b_jh4cL-17" edge="1">
          <mxGeometry relative="1" as="geometry">
            <mxPoint x="-70" y="1289.9999999999998" as="targetPoint" />
            <Array as="points">
              <mxPoint x="298" y="1180" />
              <mxPoint x="-40" y="1180" />
              <mxPoint x="-40" y="795" />
            </Array>
          </mxGeometry>
        </mxCell>
        <mxCell id="b0_iLcOauBu5iKae1qTI-163" value="IF" style="rhombus;whiteSpace=wrap;html=1;" parent="1" vertex="1">
          <mxGeometry x="272.5" y="1045" width="50" height="50" as="geometry" />
        </mxCell>
        <mxCell id="b0_iLcOauBu5iKae1qTI-169" style="edgeStyle=orthogonalEdgeStyle;rounded=0;orthogonalLoop=1;jettySize=auto;html=1;exitX=1;exitY=0.25;exitDx=0;exitDy=0;entryX=0.5;entryY=0;entryDx=0;entryDy=0;entryPerimeter=0;" parent="1" source="P18yoihbpBg77b_jh4cL-16" target="P18yoihbpBg77b_jh4cL-28" edge="1">
          <mxGeometry relative="1" as="geometry" />
        </mxCell>
        <mxCell id="b0_iLcOauBu5iKae1qTI-174" style="edgeStyle=orthogonalEdgeStyle;rounded=0;orthogonalLoop=1;jettySize=auto;html=1;exitX=1;exitY=0.25;exitDx=0;exitDy=0;entryX=-0.019;entryY=0.484;entryDx=0;entryDy=0;entryPerimeter=0;" parent="1" source="P18yoihbpBg77b_jh4cL-29" target="P18yoihbpBg77b_jh4cL-34" edge="1">
          <mxGeometry relative="1" as="geometry" />
        </mxCell>
        <mxCell id="b0_iLcOauBu5iKae1qTI-176" style="edgeStyle=orthogonalEdgeStyle;rounded=0;orthogonalLoop=1;jettySize=auto;html=1;exitX=1;exitY=0.25;exitDx=0;exitDy=0;entryX=0;entryY=0.5;entryDx=0;entryDy=0;entryPerimeter=0;" parent="1" source="P18yoihbpBg77b_jh4cL-33" target="P18yoihbpBg77b_jh4cL-85" edge="1">
          <mxGeometry relative="1" as="geometry" />
        </mxCell>
        <mxCell id="b0_iLcOauBu5iKae1qTI-177" style="edgeStyle=orthogonalEdgeStyle;rounded=0;orthogonalLoop=1;jettySize=auto;html=1;entryX=0.504;entryY=1.006;entryDx=0;entryDy=0;entryPerimeter=0;exitX=0.5;exitY=1;exitDx=0;exitDy=0;" parent="1" source="P18yoihbpBg77b_jh4cL-105" target="P18yoihbpBg77b_jh4cL-83" edge="1">
          <mxGeometry relative="1" as="geometry">
            <Array as="points">
              <mxPoint x="808" y="1240" />
              <mxPoint x="621" y="1240" />
            </Array>
          </mxGeometry>
        </mxCell>
        <mxCell id="b0_iLcOauBu5iKae1qTI-187" style="edgeStyle=orthogonalEdgeStyle;rounded=0;orthogonalLoop=1;jettySize=auto;html=1;entryX=0.5;entryY=1;entryDx=0;entryDy=0;entryPerimeter=0;" parent="1" source="P18yoihbpBg77b_jh4cL-111" target="P18yoihbpBg77b_jh4cL-114" edge="1">
          <mxGeometry relative="1" as="geometry" />
        </mxCell>
        <mxCell id="b0_iLcOauBu5iKae1qTI-189" value="1" style="text;html=1;align=center;verticalAlign=middle;resizable=0;points=[];autosize=1;strokeColor=none;fillColor=none;" parent="1" vertex="1">
          <mxGeometry x="225" y="1438" width="30" height="30" as="geometry" />
        </mxCell>
        <mxCell id="b0_iLcOauBu5iKae1qTI-190" value="1" style="text;html=1;align=center;verticalAlign=middle;resizable=0;points=[];autosize=1;strokeColor=none;fillColor=none;" parent="1" vertex="1">
          <mxGeometry x="315" y="1378" width="30" height="30" as="geometry" />
        </mxCell>
        <mxCell id="b0_iLcOauBu5iKae1qTI-192" style="edgeStyle=orthogonalEdgeStyle;rounded=0;orthogonalLoop=1;jettySize=auto;html=1;exitX=0;exitY=0.25;exitDx=0;exitDy=0;entryX=1.03;entryY=0.408;entryDx=0;entryDy=0;entryPerimeter=0;" parent="1" source="P18yoihbpBg77b_jh4cL-69" target="P18yoihbpBg77b_jh4cL-74" edge="1">
          <mxGeometry relative="1" as="geometry" />
        </mxCell>
        <mxCell id="b0_iLcOauBu5iKae1qTI-193" value="1" style="text;html=1;align=center;verticalAlign=middle;resizable=0;points=[];autosize=1;strokeColor=none;fillColor=none;" parent="1" vertex="1">
          <mxGeometry x="726" y="1334" width="30" height="30" as="geometry" />
        </mxCell>
        <mxCell id="b0_iLcOauBu5iKae1qTI-194" value="1" style="text;html=1;align=center;verticalAlign=middle;resizable=0;points=[];autosize=1;strokeColor=none;fillColor=none;" parent="1" vertex="1">
          <mxGeometry x="692" y="1319" width="30" height="30" as="geometry" />
        </mxCell>
        <mxCell id="b0_iLcOauBu5iKae1qTI-195" value="1" style="text;html=1;align=center;verticalAlign=middle;resizable=0;points=[];autosize=1;strokeColor=none;fillColor=none;" parent="1" vertex="1">
          <mxGeometry x="693" y="1464" width="30" height="30" as="geometry" />
        </mxCell>
        <mxCell id="b0_iLcOauBu5iKae1qTI-196" value="4" style="text;html=1;align=center;verticalAlign=middle;resizable=0;points=[];autosize=1;strokeColor=none;fillColor=none;" parent="1" vertex="1">
          <mxGeometry x="893" y="1336" width="30" height="30" as="geometry" />
        </mxCell>
        <mxCell id="b0_iLcOauBu5iKae1qTI-197" value="1" style="text;html=1;align=center;verticalAlign=middle;resizable=0;points=[];autosize=1;strokeColor=none;fillColor=none;" parent="1" vertex="1">
          <mxGeometry x="882" y="1383" width="30" height="30" as="geometry" />
        </mxCell>
        <mxCell id="b0_iLcOauBu5iKae1qTI-198" value="4" style="text;html=1;align=center;verticalAlign=middle;resizable=0;points=[];autosize=1;strokeColor=none;fillColor=none;" parent="1" vertex="1">
          <mxGeometry x="1052" y="1382" width="30" height="30" as="geometry" />
        </mxCell>
        <mxCell id="b0_iLcOauBu5iKae1qTI-199" value="4" style="text;html=1;align=center;verticalAlign=middle;resizable=0;points=[];autosize=1;strokeColor=none;fillColor=none;" parent="1" vertex="1">
          <mxGeometry x="1030" y="906" width="30" height="30" as="geometry" />
        </mxCell>
        <mxCell id="b0_iLcOauBu5iKae1qTI-200" value="1" style="text;html=1;align=center;verticalAlign=middle;resizable=0;points=[];autosize=1;strokeColor=none;fillColor=none;" parent="1" vertex="1">
          <mxGeometry x="525" y="1434" width="30" height="30" as="geometry" />
        </mxCell>
        <mxCell id="b0_iLcOauBu5iKae1qTI-201" value="1" style="text;html=1;align=center;verticalAlign=middle;resizable=0;points=[];autosize=1;strokeColor=none;fillColor=none;" parent="1" vertex="1">
          <mxGeometry x="525" y="1288" width="30" height="30" as="geometry" />
        </mxCell>
        <mxCell id="b0_iLcOauBu5iKae1qTI-202" value="wait&amp;nbsp;&lt;div&gt;for 4&lt;/div&gt;" style="text;html=1;align=center;verticalAlign=middle;resizable=0;points=[];autosize=1;strokeColor=none;fillColor=none;" parent="1" vertex="1">
          <mxGeometry x="484" y="1336" width="50" height="40" as="geometry" />
        </mxCell>
        <mxCell id="b0_iLcOauBu5iKae1qTI-203" value="n" style="text;html=1;align=center;verticalAlign=middle;resizable=0;points=[];autosize=1;strokeColor=none;fillColor=none;" parent="1" vertex="1">
          <mxGeometry x="780" y="1212" width="30" height="30" as="geometry" />
        </mxCell>
        <mxCell id="b0_iLcOauBu5iKae1qTI-204" value="n" style="text;html=1;align=center;verticalAlign=middle;resizable=0;points=[];autosize=1;strokeColor=none;fillColor=none;" parent="1" vertex="1">
          <mxGeometry x="615" y="1212" width="30" height="30" as="geometry" />
        </mxCell>
        <mxCell id="b0_iLcOauBu5iKae1qTI-206" value="1" style="text;html=1;align=center;verticalAlign=middle;resizable=0;points=[];autosize=1;strokeColor=none;fillColor=none;" parent="1" vertex="1">
          <mxGeometry x="975" y="988" width="30" height="30" as="geometry" />
        </mxCell>
        <mxCell id="b0_iLcOauBu5iKae1qTI-207" value="1" style="text;html=1;align=center;verticalAlign=middle;resizable=0;points=[];autosize=1;strokeColor=none;fillColor=none;" parent="1" vertex="1">
          <mxGeometry x="643" y="1045" width="30" height="30" as="geometry" />
        </mxCell>
        <mxCell id="b0_iLcOauBu5iKae1qTI-208" value="Check if it needs to produce&lt;div&gt;&amp;nbsp;new products or just stamp it&lt;/div&gt;" style="text;html=1;align=center;verticalAlign=middle;resizable=0;points=[];autosize=1;strokeColor=none;fillColor=none;" parent="1" vertex="1">
          <mxGeometry x="530" y="1005" width="180" height="40" as="geometry" />
        </mxCell>
        <mxCell id="b0_iLcOauBu5iKae1qTI-209" value="stamp product" style="text;html=1;align=center;verticalAlign=middle;resizable=0;points=[];autosize=1;strokeColor=none;fillColor=none;" parent="1" vertex="1">
          <mxGeometry x="617" y="1087" width="100" height="30" as="geometry" />
        </mxCell>
        <mxCell id="b0_iLcOauBu5iKae1qTI-210" value="1" style="text;html=1;align=center;verticalAlign=middle;resizable=0;points=[];autosize=1;strokeColor=none;fillColor=none;" parent="1" vertex="1">
          <mxGeometry x="595" y="1088" width="30" height="30" as="geometry" />
        </mxCell>
        <mxCell id="b0_iLcOauBu5iKae1qTI-211" value="1" style="text;html=1;align=center;verticalAlign=middle;resizable=0;points=[];autosize=1;strokeColor=none;fillColor=none;" parent="1" vertex="1">
          <mxGeometry x="687" y="1169" width="30" height="30" as="geometry" />
        </mxCell>
        <mxCell id="b0_iLcOauBu5iKae1qTI-212" value="1" style="text;html=1;align=center;verticalAlign=middle;resizable=0;points=[];autosize=1;strokeColor=none;fillColor=none;" parent="1" vertex="1">
          <mxGeometry x="573" y="1045" width="30" height="30" as="geometry" />
        </mxCell>
        <mxCell id="b0_iLcOauBu5iKae1qTI-213" value="1" style="text;html=1;align=center;verticalAlign=middle;resizable=0;points=[];autosize=1;strokeColor=none;fillColor=none;" parent="1" vertex="1">
          <mxGeometry x="485" y="868" width="30" height="30" as="geometry" />
        </mxCell>
        <mxCell id="b0_iLcOauBu5iKae1qTI-214" value="1" style="text;html=1;align=center;verticalAlign=middle;resizable=0;points=[];autosize=1;strokeColor=none;fillColor=none;" parent="1" vertex="1">
          <mxGeometry x="525" y="888" width="30" height="30" as="geometry" />
        </mxCell>
        <mxCell id="b0_iLcOauBu5iKae1qTI-215" value="1" style="text;html=1;align=center;verticalAlign=middle;resizable=0;points=[];autosize=1;strokeColor=none;fillColor=none;" parent="1" vertex="1">
          <mxGeometry x="525" y="1105" width="30" height="30" as="geometry" />
        </mxCell>
        <mxCell id="b0_iLcOauBu5iKae1qTI-216" value="1" style="text;html=1;align=center;verticalAlign=middle;resizable=0;points=[];autosize=1;strokeColor=none;fillColor=none;" parent="1" vertex="1">
          <mxGeometry x="683" y="863" width="30" height="30" as="geometry" />
        </mxCell>
        <mxCell id="b0_iLcOauBu5iKae1qTI-217" value="1" style="text;html=1;align=center;verticalAlign=middle;resizable=0;points=[];autosize=1;strokeColor=none;fillColor=none;" parent="1" vertex="1">
          <mxGeometry x="716" y="893" width="30" height="30" as="geometry" />
        </mxCell>
        <mxCell id="b0_iLcOauBu5iKae1qTI-218" value="1" style="text;html=1;align=center;verticalAlign=middle;resizable=0;points=[];autosize=1;strokeColor=none;fillColor=none;" parent="1" vertex="1">
          <mxGeometry x="884" y="862" width="30" height="30" as="geometry" />
        </mxCell>
        <mxCell id="b0_iLcOauBu5iKae1qTI-219" value="1" style="text;html=1;align=center;verticalAlign=middle;resizable=0;points=[];autosize=1;strokeColor=none;fillColor=none;" parent="1" vertex="1">
          <mxGeometry x="910" y="907" width="30" height="30" as="geometry" />
        </mxCell>
        <mxCell id="b0_iLcOauBu5iKae1qTI-220" value="1" style="text;html=1;align=center;verticalAlign=middle;resizable=0;points=[];autosize=1;strokeColor=none;fillColor=none;" parent="1" vertex="1">
          <mxGeometry x="268" y="908" width="30" height="30" as="geometry" />
        </mxCell>
        <mxCell id="b0_iLcOauBu5iKae1qTI-221" value="1" style="text;html=1;align=center;verticalAlign=middle;resizable=0;points=[];autosize=1;strokeColor=none;fillColor=none;" parent="1" vertex="1">
          <mxGeometry x="315" y="922" width="30" height="30" as="geometry" />
        </mxCell>
        <mxCell id="b0_iLcOauBu5iKae1qTI-222" value="1" style="text;html=1;align=center;verticalAlign=middle;resizable=0;points=[];autosize=1;strokeColor=none;fillColor=none;" parent="1" vertex="1">
          <mxGeometry x="315" y="892" width="30" height="30" as="geometry" />
        </mxCell>
        <mxCell id="b0_iLcOauBu5iKae1qTI-223" value="n" style="text;html=1;align=center;verticalAlign=middle;resizable=0;points=[];autosize=1;strokeColor=none;fillColor=none;" parent="1" vertex="1">
          <mxGeometry x="413" y="821" width="30" height="30" as="geometry" />
        </mxCell>
        <mxCell id="b0_iLcOauBu5iKae1qTI-224" value="n" style="text;html=1;align=center;verticalAlign=middle;resizable=0;points=[];autosize=1;strokeColor=none;fillColor=none;" parent="1" vertex="1">
          <mxGeometry x="414" y="846" width="30" height="30" as="geometry" />
        </mxCell>
        <mxCell id="b0_iLcOauBu5iKae1qTI-225" value="produce new products" style="text;html=1;align=center;verticalAlign=middle;resizable=0;points=[];autosize=1;strokeColor=none;fillColor=none;" parent="1" vertex="1">
          <mxGeometry x="395" y="1048" width="140" height="30" as="geometry" />
        </mxCell>
        <mxCell id="b0_iLcOauBu5iKae1qTI-226" value="Differentiate between&lt;div&gt;&amp;nbsp;product type&lt;/div&gt;" style="text;html=1;align=center;verticalAlign=middle;resizable=0;points=[];autosize=1;strokeColor=none;fillColor=none;" parent="1" vertex="1">
          <mxGeometry x="227" y="1007" width="140" height="40" as="geometry" />
        </mxCell>
        <mxCell id="b0_iLcOauBu5iKae1qTI-227" value="1" style="text;html=1;align=center;verticalAlign=middle;resizable=0;points=[];autosize=1;strokeColor=none;fillColor=none;" parent="1" vertex="1">
          <mxGeometry x="320" y="1045" width="30" height="30" as="geometry" />
        </mxCell>
        <mxCell id="b0_iLcOauBu5iKae1qTI-228" value="1" style="text;html=1;align=center;verticalAlign=middle;resizable=0;points=[];autosize=1;strokeColor=none;fillColor=none;" parent="1" vertex="1">
          <mxGeometry x="289" y="1087" width="30" height="30" as="geometry" />
        </mxCell>
        <mxCell id="b0_iLcOauBu5iKae1qTI-229" value="1" style="text;html=1;align=center;verticalAlign=middle;resizable=0;points=[];autosize=1;strokeColor=none;fillColor=none;" parent="1" vertex="1">
          <mxGeometry x="253" y="1045" width="30" height="30" as="geometry" />
        </mxCell>
        <mxCell id="b0_iLcOauBu5iKae1qTI-230" value="max 4" style="text;html=1;align=center;verticalAlign=middle;resizable=0;points=[];autosize=1;strokeColor=none;fillColor=none;" parent="1" vertex="1">
          <mxGeometry x="130" y="1059" width="60" height="30" as="geometry" />
        </mxCell>
        <mxCell id="b0_iLcOauBu5iKae1qTI-231" value="1" style="text;html=1;align=center;verticalAlign=middle;resizable=0;points=[];autosize=1;strokeColor=none;fillColor=none;" parent="1" vertex="1">
          <mxGeometry x="140" y="1033" width="30" height="30" as="geometry" />
        </mxCell>
        <mxCell id="b0_iLcOauBu5iKae1qTI-232" value="max 4" style="text;html=1;align=center;verticalAlign=middle;resizable=0;points=[];autosize=1;strokeColor=none;fillColor=none;" parent="1" vertex="1">
          <mxGeometry x="-50" y="798" width="60" height="30" as="geometry" />
        </mxCell>
        <mxCell id="b0_iLcOauBu5iKae1qTI-233" value="1" style="text;html=1;align=center;verticalAlign=middle;resizable=0;points=[];autosize=1;strokeColor=none;fillColor=none;" parent="1" vertex="1">
          <mxGeometry x="-35" y="768" width="30" height="30" as="geometry" />
        </mxCell>
        <mxCell id="b0_iLcOauBu5iKae1qTI-234" value="1" style="text;html=1;align=center;verticalAlign=middle;resizable=0;points=[];autosize=1;strokeColor=none;fillColor=none;" parent="1" vertex="1">
          <mxGeometry x="135" y="748" width="30" height="30" as="geometry" />
        </mxCell>
        <mxCell id="b0_iLcOauBu5iKae1qTI-235" value="1" style="text;html=1;align=center;verticalAlign=middle;resizable=0;points=[];autosize=1;strokeColor=none;fillColor=none;" parent="1" vertex="1">
          <mxGeometry x="227" y="848" width="30" height="30" as="geometry" />
        </mxCell>
        <mxCell id="b0_iLcOauBu5iKae1qTI-236" value="1" style="text;html=1;align=center;verticalAlign=middle;resizable=0;points=[];autosize=1;strokeColor=none;fillColor=none;" parent="1" vertex="1">
          <mxGeometry x="135" y="1008" width="30" height="30" as="geometry" />
        </mxCell>
        <mxCell id="b0_iLcOauBu5iKae1qTI-237" value="1" style="text;html=1;align=center;verticalAlign=middle;resizable=0;points=[];autosize=1;strokeColor=none;fillColor=none;" parent="1" vertex="1">
          <mxGeometry x="227" y="980" width="30" height="30" as="geometry" />
        </mxCell>
        <mxCell id="b0_iLcOauBu5iKae1qTI-238" value="Pr. D, E, F" style="text;html=1;align=center;verticalAlign=middle;resizable=0;points=[];autosize=1;strokeColor=none;fillColor=none;" parent="1" vertex="1">
          <mxGeometry x="191" y="1048" width="80" height="30" as="geometry" />
        </mxCell>
        <mxCell id="b0_iLcOauBu5iKae1qTI-239" value="Pr. A, B, C" style="text;html=1;align=center;verticalAlign=middle;resizable=0;points=[];autosize=1;strokeColor=none;fillColor=none;" parent="1" vertex="1">
          <mxGeometry x="218" y="1158" width="80" height="30" as="geometry" />
        </mxCell>
        <mxCell id="b0_iLcOauBu5iKae1qTI-240" value="n" style="text;html=1;align=center;verticalAlign=middle;resizable=0;points=[];autosize=1;strokeColor=none;fillColor=none;" parent="1" vertex="1">
          <mxGeometry x="225" y="1566" width="30" height="30" as="geometry" />
        </mxCell>
        <mxCell id="b0_iLcOauBu5iKae1qTI-241" value="n" style="text;html=1;align=center;verticalAlign=middle;resizable=0;points=[];autosize=1;strokeColor=none;fillColor=none;" parent="1" vertex="1">
          <mxGeometry x="225" y="1534" width="30" height="30" as="geometry" />
        </mxCell>
        <mxCell id="b0_iLcOauBu5iKae1qTI-243" value="n" style="text;html=1;align=center;verticalAlign=middle;resizable=0;points=[];autosize=1;strokeColor=none;fillColor=none;" parent="1" vertex="1">
          <mxGeometry x="517" y="1578" width="30" height="30" as="geometry" />
        </mxCell>
        <mxCell id="b0_iLcOauBu5iKae1qTI-244" value="n" style="text;html=1;align=center;verticalAlign=middle;resizable=0;points=[];autosize=1;strokeColor=none;fillColor=none;" parent="1" vertex="1">
          <mxGeometry x="495" y="1552" width="30" height="30" as="geometry" />
        </mxCell>
        <mxCell id="zBvh7G9cDNqdzs31kJ-0-2" style="edgeStyle=orthogonalEdgeStyle;rounded=0;orthogonalLoop=1;jettySize=auto;html=1;entryX=1;entryY=0.5;entryDx=0;entryDy=0;" parent="1" source="zBvh7G9cDNqdzs31kJ-0-1" target="P18yoihbpBg77b_jh4cL-67" edge="1">
          <mxGeometry relative="1" as="geometry">
            <Array as="points">
              <mxPoint x="432" y="1430" />
              <mxPoint x="515" y="1430" />
              <mxPoint x="515" y="1403" />
            </Array>
          </mxGeometry>
        </mxCell>
        <mxCell id="zBvh7G9cDNqdzs31kJ-0-3" style="edgeStyle=orthogonalEdgeStyle;rounded=0;orthogonalLoop=1;jettySize=auto;html=1;entryX=0;entryY=0.5;entryDx=0;entryDy=0;" parent="1" source="zBvh7G9cDNqdzs31kJ-0-1" target="P18yoihbpBg77b_jh4cL-77" edge="1">
          <mxGeometry relative="1" as="geometry">
            <Array as="points">
              <mxPoint x="335" y="1460" />
              <mxPoint x="335" y="1548" />
            </Array>
          </mxGeometry>
        </mxCell>
        <mxCell id="zBvh7G9cDNqdzs31kJ-0-1" value="storage bases" style="shape=cylinder3;whiteSpace=wrap;html=1;boundedLbl=1;backgroundOutline=1;size=7.073176686356874;" parent="1" vertex="1">
          <mxGeometry x="395" y="1434" width="75" height="49" as="geometry" />
        </mxCell>
        <mxCell id="zBvh7G9cDNqdzs31kJ-0-4" value="1" style="text;html=1;align=center;verticalAlign=middle;resizable=0;points=[];autosize=1;strokeColor=none;fillColor=none;" parent="1" vertex="1">
          <mxGeometry x="367" y="1438" width="30" height="30" as="geometry" />
        </mxCell>
        <mxCell id="zBvh7G9cDNqdzs31kJ-0-5" value="if more&amp;nbsp;&lt;div&gt;bases required&lt;/div&gt;" style="text;html=1;align=center;verticalAlign=middle;resizable=0;points=[];autosize=1;strokeColor=none;fillColor=none;" parent="1" vertex="1">
          <mxGeometry x="290" y="1441" width="100" height="40" as="geometry" />
        </mxCell>
        <mxCell id="zBvh7G9cDNqdzs31kJ-0-6" style="edgeStyle=orthogonalEdgeStyle;rounded=0;orthogonalLoop=1;jettySize=auto;html=1;entryX=0.5;entryY=1;entryDx=0;entryDy=0;entryPerimeter=0;" parent="1" source="P18yoihbpBg77b_jh4cL-77" target="zBvh7G9cDNqdzs31kJ-0-1" edge="1">
          <mxGeometry relative="1" as="geometry">
            <Array as="points">
              <mxPoint x="433" y="1490" />
              <mxPoint x="433" y="1490" />
            </Array>
          </mxGeometry>
        </mxCell>
        <mxCell id="zBvh7G9cDNqdzs31kJ-0-7" value="1" style="text;html=1;align=center;verticalAlign=middle;resizable=0;points=[];autosize=1;strokeColor=none;fillColor=none;" parent="1" vertex="1">
          <mxGeometry x="325" y="1522" width="30" height="30" as="geometry" />
        </mxCell>
        <mxCell id="zBvh7G9cDNqdzs31kJ-0-8" value="1 - 1" style="text;html=1;align=center;verticalAlign=middle;resizable=0;points=[];autosize=1;strokeColor=none;fillColor=none;" parent="1" vertex="1">
          <mxGeometry x="425" y="1480" width="50" height="30" as="geometry" />
        </mxCell>
        <mxCell id="zBvh7G9cDNqdzs31kJ-0-9" value="" style="endArrow=none;html=1;rounded=0;entryX=0.164;entryY=0.996;entryDx=0;entryDy=0;entryPerimeter=0;" parent="1" edge="1">
          <mxGeometry width="50" height="50" relative="1" as="geometry">
            <mxPoint x="202.5" y="1328" as="sourcePoint" />
            <mxPoint x="202.5" y="1268" as="targetPoint" />
          </mxGeometry>
        </mxCell>
        <mxCell id="zBvh7G9cDNqdzs31kJ-0-10" value="" style="endArrow=oval;html=1;rounded=0;exitX=1;exitY=0.25;exitDx=0;exitDy=0;endFill=1;" parent="1" edge="1">
          <mxGeometry width="50" height="50" relative="1" as="geometry">
            <mxPoint x="202.5" y="1268" as="sourcePoint" />
            <mxPoint x="297.5" y="1268" as="targetPoint" />
          </mxGeometry>
        </mxCell>
        <mxCell id="zBvh7G9cDNqdzs31kJ-0-11" value="Production time" style="edgeLabel;html=1;align=center;verticalAlign=middle;resizable=0;points=[];" parent="zBvh7G9cDNqdzs31kJ-0-10" vertex="1" connectable="0">
          <mxGeometry x="0.0888" relative="1" as="geometry">
            <mxPoint x="-6" as="offset" />
          </mxGeometry>
        </mxCell>
        <mxCell id="zBvh7G9cDNqdzs31kJ-0-12" value="" style="endArrow=oval;html=1;rounded=0;exitX=1;exitY=0.5;exitDx=0;exitDy=0;endFill=1;" parent="1" edge="1">
          <mxGeometry width="50" height="50" relative="1" as="geometry">
            <mxPoint x="202.5" y="1285" as="sourcePoint" />
            <mxPoint x="297.5" y="1285" as="targetPoint" />
          </mxGeometry>
        </mxCell>
        <mxCell id="zBvh7G9cDNqdzs31kJ-0-13" value="Rest time" style="edgeLabel;html=1;align=center;verticalAlign=middle;resizable=0;points=[];" parent="zBvh7G9cDNqdzs31kJ-0-12" vertex="1" connectable="0">
          <mxGeometry x="0.2667" y="-2" relative="1" as="geometry">
            <mxPoint x="-29" y="-1" as="offset" />
          </mxGeometry>
        </mxCell>
        <mxCell id="zBvh7G9cDNqdzs31kJ-0-14" value="" style="endArrow=oval;html=1;rounded=0;exitX=1;exitY=0.25;exitDx=0;exitDy=0;endFill=1;" parent="1" edge="1">
          <mxGeometry width="50" height="50" relative="1" as="geometry">
            <mxPoint x="202.5" y="1302" as="sourcePoint" />
            <mxPoint x="297.5" y="1302" as="targetPoint" />
          </mxGeometry>
        </mxCell>
        <mxCell id="zBvh7G9cDNqdzs31kJ-0-15" value="Occupied" style="edgeLabel;html=1;align=center;verticalAlign=middle;resizable=0;points=[];" parent="zBvh7G9cDNqdzs31kJ-0-14" vertex="1" connectable="0">
          <mxGeometry x="-0.0054" relative="1" as="geometry">
            <mxPoint x="-16" as="offset" />
          </mxGeometry>
        </mxCell>
        <mxCell id="zBvh7G9cDNqdzs31kJ-0-16" value="" style="endArrow=none;html=1;rounded=0;entryX=0.164;entryY=0.996;entryDx=0;entryDy=0;entryPerimeter=0;" parent="1" edge="1">
          <mxGeometry width="50" height="50" relative="1" as="geometry">
            <mxPoint x="378" y="1328" as="sourcePoint" />
            <mxPoint x="378" y="1268" as="targetPoint" />
          </mxGeometry>
        </mxCell>
        <mxCell id="zBvh7G9cDNqdzs31kJ-0-17" value="" style="endArrow=oval;html=1;rounded=0;exitX=1;exitY=0.25;exitDx=0;exitDy=0;endFill=1;" parent="1" edge="1">
          <mxGeometry width="50" height="50" relative="1" as="geometry">
            <mxPoint x="378" y="1268" as="sourcePoint" />
            <mxPoint x="473" y="1268" as="targetPoint" />
          </mxGeometry>
        </mxCell>
        <mxCell id="zBvh7G9cDNqdzs31kJ-0-18" value="Production time" style="edgeLabel;html=1;align=center;verticalAlign=middle;resizable=0;points=[];" parent="zBvh7G9cDNqdzs31kJ-0-17" vertex="1" connectable="0">
          <mxGeometry x="0.0888" relative="1" as="geometry">
            <mxPoint x="-6" as="offset" />
          </mxGeometry>
        </mxCell>
        <mxCell id="zBvh7G9cDNqdzs31kJ-0-19" value="" style="endArrow=oval;html=1;rounded=0;exitX=1;exitY=0.5;exitDx=0;exitDy=0;endFill=1;" parent="1" edge="1">
          <mxGeometry width="50" height="50" relative="1" as="geometry">
            <mxPoint x="378" y="1285" as="sourcePoint" />
            <mxPoint x="473" y="1285" as="targetPoint" />
          </mxGeometry>
        </mxCell>
        <mxCell id="zBvh7G9cDNqdzs31kJ-0-20" value="Rest time" style="edgeLabel;html=1;align=center;verticalAlign=middle;resizable=0;points=[];" parent="zBvh7G9cDNqdzs31kJ-0-19" vertex="1" connectable="0">
          <mxGeometry x="0.2667" y="-2" relative="1" as="geometry">
            <mxPoint x="-29" y="-1" as="offset" />
          </mxGeometry>
        </mxCell>
        <mxCell id="zBvh7G9cDNqdzs31kJ-0-21" value="" style="endArrow=oval;html=1;rounded=0;exitX=1;exitY=0.25;exitDx=0;exitDy=0;endFill=1;" parent="1" edge="1">
          <mxGeometry width="50" height="50" relative="1" as="geometry">
            <mxPoint x="378" y="1302" as="sourcePoint" />
            <mxPoint x="473" y="1302" as="targetPoint" />
          </mxGeometry>
        </mxCell>
        <mxCell id="zBvh7G9cDNqdzs31kJ-0-22" value="Occupied" style="edgeLabel;html=1;align=center;verticalAlign=middle;resizable=0;points=[];" parent="zBvh7G9cDNqdzs31kJ-0-21" vertex="1" connectable="0">
          <mxGeometry x="-0.0054" relative="1" as="geometry">
            <mxPoint x="-16" as="offset" />
          </mxGeometry>
        </mxCell>
        <mxCell id="zBvh7G9cDNqdzs31kJ-0-23" value="" style="endArrow=none;html=1;rounded=0;entryX=0.164;entryY=0.996;entryDx=0;entryDy=0;entryPerimeter=0;" parent="1" edge="1">
          <mxGeometry width="50" height="50" relative="1" as="geometry">
            <mxPoint x="573" y="1417" as="sourcePoint" />
            <mxPoint x="573" y="1357" as="targetPoint" />
          </mxGeometry>
        </mxCell>
        <mxCell id="zBvh7G9cDNqdzs31kJ-0-24" value="" style="endArrow=oval;html=1;rounded=0;exitX=1;exitY=0.25;exitDx=0;exitDy=0;endFill=1;" parent="1" edge="1">
          <mxGeometry width="50" height="50" relative="1" as="geometry">
            <mxPoint x="573" y="1383" as="sourcePoint" />
            <mxPoint x="668" y="1383" as="targetPoint" />
          </mxGeometry>
        </mxCell>
        <mxCell id="zBvh7G9cDNqdzs31kJ-0-25" value="Production time" style="edgeLabel;html=1;align=center;verticalAlign=middle;resizable=0;points=[];" parent="zBvh7G9cDNqdzs31kJ-0-24" vertex="1" connectable="0">
          <mxGeometry x="0.0888" relative="1" as="geometry">
            <mxPoint x="-6" as="offset" />
          </mxGeometry>
        </mxCell>
        <mxCell id="zBvh7G9cDNqdzs31kJ-0-26" value="" style="endArrow=oval;html=1;rounded=0;exitX=1;exitY=0.5;exitDx=0;exitDy=0;endFill=1;" parent="1" edge="1">
          <mxGeometry width="50" height="50" relative="1" as="geometry">
            <mxPoint x="573" y="1400" as="sourcePoint" />
            <mxPoint x="668" y="1400" as="targetPoint" />
          </mxGeometry>
        </mxCell>
        <mxCell id="zBvh7G9cDNqdzs31kJ-0-27" value="Rest time" style="edgeLabel;html=1;align=center;verticalAlign=middle;resizable=0;points=[];" parent="zBvh7G9cDNqdzs31kJ-0-26" vertex="1" connectable="0">
          <mxGeometry x="0.2667" y="-2" relative="1" as="geometry">
            <mxPoint x="-29" y="-1" as="offset" />
          </mxGeometry>
        </mxCell>
        <mxCell id="zBvh7G9cDNqdzs31kJ-0-28" value="" style="endArrow=oval;html=1;rounded=0;exitX=1;exitY=0.25;exitDx=0;exitDy=0;endFill=1;" parent="1" edge="1">
          <mxGeometry width="50" height="50" relative="1" as="geometry">
            <mxPoint x="573" y="1417" as="sourcePoint" />
            <mxPoint x="668" y="1417" as="targetPoint" />
          </mxGeometry>
        </mxCell>
        <mxCell id="zBvh7G9cDNqdzs31kJ-0-29" value="Occupied" style="edgeLabel;html=1;align=center;verticalAlign=middle;resizable=0;points=[];" parent="zBvh7G9cDNqdzs31kJ-0-28" vertex="1" connectable="0">
          <mxGeometry x="-0.0054" relative="1" as="geometry">
            <mxPoint x="-16" as="offset" />
          </mxGeometry>
        </mxCell>
        <mxCell id="zBvh7G9cDNqdzs31kJ-0-30" value="" style="endArrow=none;html=1;rounded=0;entryX=0.164;entryY=0.996;entryDx=0;entryDy=0;entryPerimeter=0;" parent="1" edge="1">
          <mxGeometry width="50" height="50" relative="1" as="geometry">
            <mxPoint x="572.5" y="1561" as="sourcePoint" />
            <mxPoint x="572.5" y="1501" as="targetPoint" />
          </mxGeometry>
        </mxCell>
        <mxCell id="zBvh7G9cDNqdzs31kJ-0-31" value="" style="endArrow=oval;html=1;rounded=0;exitX=1;exitY=0.25;exitDx=0;exitDy=0;endFill=1;" parent="1" edge="1">
          <mxGeometry width="50" height="50" relative="1" as="geometry">
            <mxPoint x="572.5" y="1527" as="sourcePoint" />
            <mxPoint x="667.5" y="1527" as="targetPoint" />
          </mxGeometry>
        </mxCell>
        <mxCell id="zBvh7G9cDNqdzs31kJ-0-32" value="Production time" style="edgeLabel;html=1;align=center;verticalAlign=middle;resizable=0;points=[];" parent="zBvh7G9cDNqdzs31kJ-0-31" vertex="1" connectable="0">
          <mxGeometry x="0.0888" relative="1" as="geometry">
            <mxPoint x="-6" as="offset" />
          </mxGeometry>
        </mxCell>
        <mxCell id="zBvh7G9cDNqdzs31kJ-0-33" value="" style="endArrow=oval;html=1;rounded=0;exitX=1;exitY=0.5;exitDx=0;exitDy=0;endFill=1;" parent="1" edge="1">
          <mxGeometry width="50" height="50" relative="1" as="geometry">
            <mxPoint x="572.5" y="1544" as="sourcePoint" />
            <mxPoint x="667.5" y="1544" as="targetPoint" />
          </mxGeometry>
        </mxCell>
        <mxCell id="zBvh7G9cDNqdzs31kJ-0-34" value="Rest time" style="edgeLabel;html=1;align=center;verticalAlign=middle;resizable=0;points=[];" parent="zBvh7G9cDNqdzs31kJ-0-33" vertex="1" connectable="0">
          <mxGeometry x="0.2667" y="-2" relative="1" as="geometry">
            <mxPoint x="-29" y="-1" as="offset" />
          </mxGeometry>
        </mxCell>
        <mxCell id="zBvh7G9cDNqdzs31kJ-0-35" value="" style="endArrow=oval;html=1;rounded=0;exitX=1;exitY=0.25;exitDx=0;exitDy=0;endFill=1;" parent="1" edge="1">
          <mxGeometry width="50" height="50" relative="1" as="geometry">
            <mxPoint x="572.5" y="1561" as="sourcePoint" />
            <mxPoint x="667.5" y="1561" as="targetPoint" />
          </mxGeometry>
        </mxCell>
        <mxCell id="zBvh7G9cDNqdzs31kJ-0-36" value="Occupied" style="edgeLabel;html=1;align=center;verticalAlign=middle;resizable=0;points=[];" parent="zBvh7G9cDNqdzs31kJ-0-35" vertex="1" connectable="0">
          <mxGeometry x="-0.0054" relative="1" as="geometry">
            <mxPoint x="-16" as="offset" />
          </mxGeometry>
        </mxCell>
        <mxCell id="zBvh7G9cDNqdzs31kJ-0-37" value="" style="endArrow=none;html=1;rounded=0;entryX=0.164;entryY=0.996;entryDx=0;entryDy=0;entryPerimeter=0;" parent="1" edge="1">
          <mxGeometry width="50" height="50" relative="1" as="geometry">
            <mxPoint x="772.5" y="1462" as="sourcePoint" />
            <mxPoint x="772.5" y="1402" as="targetPoint" />
          </mxGeometry>
        </mxCell>
        <mxCell id="zBvh7G9cDNqdzs31kJ-0-38" value="" style="endArrow=oval;html=1;rounded=0;exitX=1;exitY=0.25;exitDx=0;exitDy=0;endFill=1;" parent="1" edge="1">
          <mxGeometry width="50" height="50" relative="1" as="geometry">
            <mxPoint x="772.5" y="1428" as="sourcePoint" />
            <mxPoint x="867.5" y="1428" as="targetPoint" />
          </mxGeometry>
        </mxCell>
        <mxCell id="zBvh7G9cDNqdzs31kJ-0-39" value="Production time" style="edgeLabel;html=1;align=center;verticalAlign=middle;resizable=0;points=[];" parent="zBvh7G9cDNqdzs31kJ-0-38" vertex="1" connectable="0">
          <mxGeometry x="0.0888" relative="1" as="geometry">
            <mxPoint x="-6" as="offset" />
          </mxGeometry>
        </mxCell>
        <mxCell id="zBvh7G9cDNqdzs31kJ-0-40" value="" style="endArrow=oval;html=1;rounded=0;exitX=1;exitY=0.5;exitDx=0;exitDy=0;endFill=1;" parent="1" edge="1">
          <mxGeometry width="50" height="50" relative="1" as="geometry">
            <mxPoint x="772.5" y="1445" as="sourcePoint" />
            <mxPoint x="867.5" y="1445" as="targetPoint" />
          </mxGeometry>
        </mxCell>
        <mxCell id="zBvh7G9cDNqdzs31kJ-0-41" value="Rest time" style="edgeLabel;html=1;align=center;verticalAlign=middle;resizable=0;points=[];" parent="zBvh7G9cDNqdzs31kJ-0-40" vertex="1" connectable="0">
          <mxGeometry x="0.2667" y="-2" relative="1" as="geometry">
            <mxPoint x="-29" y="-1" as="offset" />
          </mxGeometry>
        </mxCell>
        <mxCell id="zBvh7G9cDNqdzs31kJ-0-42" value="" style="endArrow=oval;html=1;rounded=0;exitX=1;exitY=0.25;exitDx=0;exitDy=0;endFill=1;" parent="1" edge="1">
          <mxGeometry width="50" height="50" relative="1" as="geometry">
            <mxPoint x="772.5" y="1462" as="sourcePoint" />
            <mxPoint x="867.5" y="1462" as="targetPoint" />
          </mxGeometry>
        </mxCell>
        <mxCell id="zBvh7G9cDNqdzs31kJ-0-43" value="Occupied" style="edgeLabel;html=1;align=center;verticalAlign=middle;resizable=0;points=[];" parent="zBvh7G9cDNqdzs31kJ-0-42" vertex="1" connectable="0">
          <mxGeometry x="-0.0054" relative="1" as="geometry">
            <mxPoint x="-16" as="offset" />
          </mxGeometry>
        </mxCell>
        <mxCell id="zBvh7G9cDNqdzs31kJ-0-44" value="" style="endArrow=none;html=1;rounded=0;entryX=0.164;entryY=0.996;entryDx=0;entryDy=0;entryPerimeter=0;" parent="1" edge="1">
          <mxGeometry width="50" height="50" relative="1" as="geometry">
            <mxPoint x="937.25" y="1462.6" as="sourcePoint" />
            <mxPoint x="937.25" y="1402.6" as="targetPoint" />
          </mxGeometry>
        </mxCell>
        <mxCell id="zBvh7G9cDNqdzs31kJ-0-45" value="" style="endArrow=oval;html=1;rounded=0;exitX=1;exitY=0.25;exitDx=0;exitDy=0;endFill=1;" parent="1" edge="1">
          <mxGeometry width="50" height="50" relative="1" as="geometry">
            <mxPoint x="937.25" y="1428.6" as="sourcePoint" />
            <mxPoint x="1032.25" y="1428.6" as="targetPoint" />
          </mxGeometry>
        </mxCell>
        <mxCell id="zBvh7G9cDNqdzs31kJ-0-46" value="Production time" style="edgeLabel;html=1;align=center;verticalAlign=middle;resizable=0;points=[];" parent="zBvh7G9cDNqdzs31kJ-0-45" vertex="1" connectable="0">
          <mxGeometry x="0.0888" relative="1" as="geometry">
            <mxPoint x="-6" as="offset" />
          </mxGeometry>
        </mxCell>
        <mxCell id="zBvh7G9cDNqdzs31kJ-0-47" value="" style="endArrow=oval;html=1;rounded=0;exitX=1;exitY=0.5;exitDx=0;exitDy=0;endFill=1;" parent="1" edge="1">
          <mxGeometry width="50" height="50" relative="1" as="geometry">
            <mxPoint x="937.25" y="1445.6" as="sourcePoint" />
            <mxPoint x="1032.25" y="1445.6" as="targetPoint" />
          </mxGeometry>
        </mxCell>
        <mxCell id="zBvh7G9cDNqdzs31kJ-0-48" value="Rest time" style="edgeLabel;html=1;align=center;verticalAlign=middle;resizable=0;points=[];" parent="zBvh7G9cDNqdzs31kJ-0-47" vertex="1" connectable="0">
          <mxGeometry x="0.2667" y="-2" relative="1" as="geometry">
            <mxPoint x="-29" y="-1" as="offset" />
          </mxGeometry>
        </mxCell>
        <mxCell id="zBvh7G9cDNqdzs31kJ-0-49" value="" style="endArrow=oval;html=1;rounded=0;exitX=1;exitY=0.25;exitDx=0;exitDy=0;endFill=1;" parent="1" edge="1">
          <mxGeometry width="50" height="50" relative="1" as="geometry">
            <mxPoint x="937.25" y="1462.6" as="sourcePoint" />
            <mxPoint x="1032.25" y="1462.6" as="targetPoint" />
            <Array as="points">
              <mxPoint x="1004.25" y="1462.6" />
            </Array>
          </mxGeometry>
        </mxCell>
        <mxCell id="zBvh7G9cDNqdzs31kJ-0-50" value="Occupied" style="edgeLabel;html=1;align=center;verticalAlign=middle;resizable=0;points=[];" parent="zBvh7G9cDNqdzs31kJ-0-49" vertex="1" connectable="0">
          <mxGeometry x="-0.0054" relative="1" as="geometry">
            <mxPoint x="-16" as="offset" />
          </mxGeometry>
        </mxCell>
        <mxCell id="zBvh7G9cDNqdzs31kJ-0-51" value="" style="endArrow=none;html=1;rounded=0;entryX=0.164;entryY=0.996;entryDx=0;entryDy=0;entryPerimeter=0;" parent="1" edge="1">
          <mxGeometry width="50" height="50" relative="1" as="geometry">
            <mxPoint x="22.5" y="900" as="sourcePoint" />
            <mxPoint x="22.5" y="840" as="targetPoint" />
          </mxGeometry>
        </mxCell>
        <mxCell id="zBvh7G9cDNqdzs31kJ-0-52" value="" style="endArrow=oval;html=1;rounded=0;exitX=1;exitY=0.25;exitDx=0;exitDy=0;endFill=1;" parent="1" edge="1">
          <mxGeometry width="50" height="50" relative="1" as="geometry">
            <mxPoint x="22.5" y="866" as="sourcePoint" />
            <mxPoint x="117.5" y="866" as="targetPoint" />
          </mxGeometry>
        </mxCell>
        <mxCell id="zBvh7G9cDNqdzs31kJ-0-53" value="Production time" style="edgeLabel;html=1;align=center;verticalAlign=middle;resizable=0;points=[];" parent="zBvh7G9cDNqdzs31kJ-0-52" vertex="1" connectable="0">
          <mxGeometry x="0.0888" relative="1" as="geometry">
            <mxPoint x="-6" as="offset" />
          </mxGeometry>
        </mxCell>
        <mxCell id="zBvh7G9cDNqdzs31kJ-0-54" value="" style="endArrow=oval;html=1;rounded=0;exitX=1;exitY=0.5;exitDx=0;exitDy=0;endFill=1;" parent="1" edge="1">
          <mxGeometry width="50" height="50" relative="1" as="geometry">
            <mxPoint x="22.5" y="883" as="sourcePoint" />
            <mxPoint x="117.5" y="883" as="targetPoint" />
          </mxGeometry>
        </mxCell>
        <mxCell id="zBvh7G9cDNqdzs31kJ-0-55" value="Rest time" style="edgeLabel;html=1;align=center;verticalAlign=middle;resizable=0;points=[];" parent="zBvh7G9cDNqdzs31kJ-0-54" vertex="1" connectable="0">
          <mxGeometry x="0.2667" y="-2" relative="1" as="geometry">
            <mxPoint x="-29" y="-1" as="offset" />
          </mxGeometry>
        </mxCell>
        <mxCell id="zBvh7G9cDNqdzs31kJ-0-56" value="" style="endArrow=oval;html=1;rounded=0;exitX=1;exitY=0.25;exitDx=0;exitDy=0;endFill=1;" parent="1" edge="1">
          <mxGeometry width="50" height="50" relative="1" as="geometry">
            <mxPoint x="22.5" y="900" as="sourcePoint" />
            <mxPoint x="117.5" y="900" as="targetPoint" />
          </mxGeometry>
        </mxCell>
        <mxCell id="zBvh7G9cDNqdzs31kJ-0-57" value="Occupied" style="edgeLabel;html=1;align=center;verticalAlign=middle;resizable=0;points=[];" parent="zBvh7G9cDNqdzs31kJ-0-56" vertex="1" connectable="0">
          <mxGeometry x="-0.0054" relative="1" as="geometry">
            <mxPoint x="-16" as="offset" />
          </mxGeometry>
        </mxCell>
        <mxCell id="zBvh7G9cDNqdzs31kJ-0-58" value="" style="endArrow=none;html=1;rounded=0;entryX=0.164;entryY=0.996;entryDx=0;entryDy=0;entryPerimeter=0;" parent="1" edge="1">
          <mxGeometry width="50" height="50" relative="1" as="geometry">
            <mxPoint x="22.5" y="1160" as="sourcePoint" />
            <mxPoint x="22.5" y="1100" as="targetPoint" />
          </mxGeometry>
        </mxCell>
        <mxCell id="zBvh7G9cDNqdzs31kJ-0-59" value="" style="endArrow=oval;html=1;rounded=0;exitX=1;exitY=0.25;exitDx=0;exitDy=0;endFill=1;" parent="1" edge="1">
          <mxGeometry width="50" height="50" relative="1" as="geometry">
            <mxPoint x="22.5" y="1126" as="sourcePoint" />
            <mxPoint x="117.5" y="1126" as="targetPoint" />
          </mxGeometry>
        </mxCell>
        <mxCell id="zBvh7G9cDNqdzs31kJ-0-60" value="Production time" style="edgeLabel;html=1;align=center;verticalAlign=middle;resizable=0;points=[];" parent="zBvh7G9cDNqdzs31kJ-0-59" vertex="1" connectable="0">
          <mxGeometry x="0.0888" relative="1" as="geometry">
            <mxPoint x="-6" as="offset" />
          </mxGeometry>
        </mxCell>
        <mxCell id="zBvh7G9cDNqdzs31kJ-0-61" value="" style="endArrow=oval;html=1;rounded=0;exitX=1;exitY=0.5;exitDx=0;exitDy=0;endFill=1;" parent="1" edge="1">
          <mxGeometry width="50" height="50" relative="1" as="geometry">
            <mxPoint x="22.5" y="1143" as="sourcePoint" />
            <mxPoint x="117.5" y="1143" as="targetPoint" />
          </mxGeometry>
        </mxCell>
        <mxCell id="zBvh7G9cDNqdzs31kJ-0-62" value="Rest time" style="edgeLabel;html=1;align=center;verticalAlign=middle;resizable=0;points=[];" parent="zBvh7G9cDNqdzs31kJ-0-61" vertex="1" connectable="0">
          <mxGeometry x="0.2667" y="-2" relative="1" as="geometry">
            <mxPoint x="-29" y="-1" as="offset" />
          </mxGeometry>
        </mxCell>
        <mxCell id="zBvh7G9cDNqdzs31kJ-0-63" value="" style="endArrow=oval;html=1;rounded=0;exitX=1;exitY=0.25;exitDx=0;exitDy=0;endFill=1;" parent="1" edge="1">
          <mxGeometry width="50" height="50" relative="1" as="geometry">
            <mxPoint x="22.5" y="1160" as="sourcePoint" />
            <mxPoint x="117.5" y="1160" as="targetPoint" />
          </mxGeometry>
        </mxCell>
        <mxCell id="zBvh7G9cDNqdzs31kJ-0-64" value="Occupied" style="edgeLabel;html=1;align=center;verticalAlign=middle;resizable=0;points=[];" parent="zBvh7G9cDNqdzs31kJ-0-63" vertex="1" connectable="0">
          <mxGeometry x="-0.0054" relative="1" as="geometry">
            <mxPoint x="-16" as="offset" />
          </mxGeometry>
        </mxCell>
        <mxCell id="zBvh7G9cDNqdzs31kJ-0-65" value="" style="endArrow=none;html=1;rounded=0;entryX=0.164;entryY=0.996;entryDx=0;entryDy=0;entryPerimeter=0;" parent="1" edge="1">
          <mxGeometry width="50" height="50" relative="1" as="geometry">
            <mxPoint x="573" y="990" as="sourcePoint" />
            <mxPoint x="573" y="930" as="targetPoint" />
          </mxGeometry>
        </mxCell>
        <mxCell id="zBvh7G9cDNqdzs31kJ-0-66" value="" style="endArrow=oval;html=1;rounded=0;exitX=1;exitY=0.25;exitDx=0;exitDy=0;endFill=1;" parent="1" edge="1">
          <mxGeometry width="50" height="50" relative="1" as="geometry">
            <mxPoint x="573" y="956" as="sourcePoint" />
            <mxPoint x="668" y="956" as="targetPoint" />
          </mxGeometry>
        </mxCell>
        <mxCell id="zBvh7G9cDNqdzs31kJ-0-67" value="Production time" style="edgeLabel;html=1;align=center;verticalAlign=middle;resizable=0;points=[];" parent="zBvh7G9cDNqdzs31kJ-0-66" vertex="1" connectable="0">
          <mxGeometry x="0.0888" relative="1" as="geometry">
            <mxPoint x="-6" as="offset" />
          </mxGeometry>
        </mxCell>
        <mxCell id="zBvh7G9cDNqdzs31kJ-0-68" value="" style="endArrow=oval;html=1;rounded=0;exitX=1;exitY=0.5;exitDx=0;exitDy=0;endFill=1;" parent="1" edge="1">
          <mxGeometry width="50" height="50" relative="1" as="geometry">
            <mxPoint x="573" y="973" as="sourcePoint" />
            <mxPoint x="668" y="973" as="targetPoint" />
          </mxGeometry>
        </mxCell>
        <mxCell id="zBvh7G9cDNqdzs31kJ-0-69" value="Rest time" style="edgeLabel;html=1;align=center;verticalAlign=middle;resizable=0;points=[];" parent="zBvh7G9cDNqdzs31kJ-0-68" vertex="1" connectable="0">
          <mxGeometry x="0.2667" y="-2" relative="1" as="geometry">
            <mxPoint x="-29" y="-1" as="offset" />
          </mxGeometry>
        </mxCell>
        <mxCell id="zBvh7G9cDNqdzs31kJ-0-70" value="" style="endArrow=oval;html=1;rounded=0;exitX=1;exitY=0.25;exitDx=0;exitDy=0;endFill=1;" parent="1" edge="1">
          <mxGeometry width="50" height="50" relative="1" as="geometry">
            <mxPoint x="573" y="990" as="sourcePoint" />
            <mxPoint x="668" y="990" as="targetPoint" />
          </mxGeometry>
        </mxCell>
        <mxCell id="zBvh7G9cDNqdzs31kJ-0-71" value="Occupied" style="edgeLabel;html=1;align=center;verticalAlign=middle;resizable=0;points=[];" parent="zBvh7G9cDNqdzs31kJ-0-70" vertex="1" connectable="0">
          <mxGeometry x="-0.0054" relative="1" as="geometry">
            <mxPoint x="-16" as="offset" />
          </mxGeometry>
        </mxCell>
        <mxCell id="zBvh7G9cDNqdzs31kJ-0-72" value="" style="endArrow=none;html=1;rounded=0;entryX=0.164;entryY=0.996;entryDx=0;entryDy=0;entryPerimeter=0;" parent="1" edge="1">
          <mxGeometry width="50" height="50" relative="1" as="geometry">
            <mxPoint x="772.5" y="990" as="sourcePoint" />
            <mxPoint x="772.5" y="930" as="targetPoint" />
          </mxGeometry>
        </mxCell>
        <mxCell id="zBvh7G9cDNqdzs31kJ-0-73" value="" style="endArrow=oval;html=1;rounded=0;exitX=1;exitY=0.25;exitDx=0;exitDy=0;endFill=1;" parent="1" edge="1">
          <mxGeometry width="50" height="50" relative="1" as="geometry">
            <mxPoint x="772.5" y="956" as="sourcePoint" />
            <mxPoint x="867.5" y="956" as="targetPoint" />
          </mxGeometry>
        </mxCell>
        <mxCell id="zBvh7G9cDNqdzs31kJ-0-74" value="Production time" style="edgeLabel;html=1;align=center;verticalAlign=middle;resizable=0;points=[];" parent="zBvh7G9cDNqdzs31kJ-0-73" vertex="1" connectable="0">
          <mxGeometry x="0.0888" relative="1" as="geometry">
            <mxPoint x="-6" as="offset" />
          </mxGeometry>
        </mxCell>
        <mxCell id="zBvh7G9cDNqdzs31kJ-0-75" value="" style="endArrow=oval;html=1;rounded=0;exitX=1;exitY=0.5;exitDx=0;exitDy=0;endFill=1;" parent="1" edge="1">
          <mxGeometry width="50" height="50" relative="1" as="geometry">
            <mxPoint x="772.5" y="973" as="sourcePoint" />
            <mxPoint x="867.5" y="973" as="targetPoint" />
          </mxGeometry>
        </mxCell>
        <mxCell id="zBvh7G9cDNqdzs31kJ-0-76" value="Rest time" style="edgeLabel;html=1;align=center;verticalAlign=middle;resizable=0;points=[];" parent="zBvh7G9cDNqdzs31kJ-0-75" vertex="1" connectable="0">
          <mxGeometry x="0.2667" y="-2" relative="1" as="geometry">
            <mxPoint x="-29" y="-1" as="offset" />
          </mxGeometry>
        </mxCell>
        <mxCell id="zBvh7G9cDNqdzs31kJ-0-77" value="" style="endArrow=oval;html=1;rounded=0;exitX=1;exitY=0.25;exitDx=0;exitDy=0;endFill=1;" parent="1" edge="1">
          <mxGeometry width="50" height="50" relative="1" as="geometry">
            <mxPoint x="772.5" y="990" as="sourcePoint" />
            <mxPoint x="867.5" y="990" as="targetPoint" />
          </mxGeometry>
        </mxCell>
        <mxCell id="zBvh7G9cDNqdzs31kJ-0-78" value="Occupied" style="edgeLabel;html=1;align=center;verticalAlign=middle;resizable=0;points=[];" parent="zBvh7G9cDNqdzs31kJ-0-77" vertex="1" connectable="0">
          <mxGeometry x="-0.0054" relative="1" as="geometry">
            <mxPoint x="-16" as="offset" />
          </mxGeometry>
        </mxCell>
        <mxCell id="zBvh7G9cDNqdzs31kJ-0-79" value="1" style="text;html=1;align=center;verticalAlign=middle;resizable=0;points=[];autosize=1;strokeColor=none;fillColor=none;" parent="1" vertex="1">
          <mxGeometry x="409" y="1412" width="30" height="30" as="geometry" />
        </mxCell>
        <mxCell id="zBvh7G9cDNqdzs31kJ-0-80" value="1" style="text;html=1;align=center;verticalAlign=middle;resizable=0;points=[];autosize=1;strokeColor=none;fillColor=none;" parent="1" vertex="1">
          <mxGeometry x="492" y="1378" width="30" height="30" as="geometry" />
        </mxCell>
      </root>
    </mxGraphModel>
  </diagram>
</mxfile>
